<svg width="66" height="66" viewBox="0 0 66 66" fill="none" xmlns="http://www.w3.org/2000/svg">
<rect width="66" height="66" fill="white"/>
<path d="M16.5 33C16.5 23.8873 23.8873 16.5 33 16.5C42.1127 16.5 49.5 23.8873 49.5 33V49.5H16.5V33Z" fill="#4318FF"/>
<circle cx="33" cy="33" r="8.25" fill="white"/>
<circle r="2.75" transform="matrix(1 0 0 -1 33 33)" fill="#FF5252"/>
<path fill-rule="evenodd" clip-rule="evenodd" d="M44.9842 14.547L43.4843 16.8519C42.9224 16.4863 42.3404 16.1493 41.7404 15.843L42.9908 13.3937C43.6769 13.744 44.3421 14.1292 44.9842 14.547ZM34.1526 11.0296L34.0109 13.776C33.6767 13.7587 33.3399 13.75 33.0009 13.75C32.6618 13.75 32.3251 13.7587 31.9908 13.776L31.8492 11.0296C32.2306 11.01 32.6146 11 33.0009 11C33.3872 11 33.7712 11.01 34.1526 11.0296ZM23.0109 13.3937L24.2614 15.843C23.6614 16.1493 23.0794 16.4863 22.5175 16.8519L21.0176 14.547C21.6596 14.1292 22.3249 13.744 23.0109 13.3937Z" fill="#4318FF"/>
<rect x="16.5" y="52.25" width="33" height="2.75" fill="#4318FF"/>
</svg>
