<svg width="66" height="66" viewBox="0 0 66 66" fill="none" xmlns="http://www.w3.org/2000/svg">
<rect width="66" height="66" fill="white"/>
<path fill-rule="evenodd" clip-rule="evenodd" d="M34.8814 7.58229C33.7837 6.71136 32.2159 6.71135 31.1182 7.58227C26.0395 11.6117 19.9894 14.4699 13.3762 15.7485C12.0229 16.0101 11 17.1656 11 18.544V35.9024C11 44.2354 15.7081 51.8532 23.1613 55.5798L33 60.4992L42.8387 55.5798C50.2919 51.8532 55 44.2354 55 35.9024V18.5443C55 17.1659 53.9771 16.0104 52.6238 15.7488C46.0104 14.4701 39.9602 11.6119 34.8814 7.58229Z" fill="#0000FF"/>
<path d="M35.75 26.9844V35.5781C35.75 37.002 34.5957 38.1562 33.1719 38.1562C31.748 38.1562 30.5938 37.002 30.5938 35.5781V26.9844C30.5938 26.5098 30.209 26.125 29.7344 26.125C29.2598 26.125 28.875 26.5098 28.875 26.9844V35.5781C28.875 37.9512 30.7988 39.875 33.1719 39.875C35.545 39.875 37.4688 37.9512 37.4688 35.5781V26.9844C37.4688 22.7128 34.006 19.25 29.7344 19.25C25.4628 19.25 22 22.7128 22 26.9844V35.5781C22 41.7482 27.0018 46.75 33.1719 46.75C39.3419 46.75 44.3438 41.7482 44.3438 35.5781V31.2812H42.625V35.5781C42.625 40.7989 38.3927 45.0312 33.1719 45.0312C27.9511 45.0312 23.7188 40.7989 23.7188 35.5781V26.9844C23.7188 23.662 26.412 20.9688 29.7344 20.9688C33.0567 20.9688 35.75 23.662 35.75 26.9844Z" fill="white"/>
<path d="M32.3125 26.9844C32.3125 25.5605 31.1582 24.4062 29.7344 24.4062C28.3105 24.4062 27.1562 25.5605 27.1562 26.9844V35.5781C27.1562 38.9005 29.8495 41.5938 33.1719 41.5938C36.4942 41.5938 39.1875 38.9005 39.1875 35.5781V31.2812H40.9062V35.5781C40.9062 39.8497 37.4435 43.3125 33.1719 43.3125C28.9003 43.3125 25.4375 39.8497 25.4375 35.5781V26.9844C25.4375 24.6113 27.3613 22.6875 29.7344 22.6875C32.1075 22.6875 34.0312 24.6113 34.0312 26.9844V34.7188H32.3125V26.9844Z" fill="white"/>
</svg>
