<svg width="66" height="65" viewBox="0 0 66 65" fill="none" xmlns="http://www.w3.org/2000/svg">
<path d="M0.5 12.1875H12.6875V24.375H0.5V12.1875Z" fill="#5C2D91"/>
<path d="M0.5 36.5625H12.6875V48.75H0.5V36.5625Z" fill="#5C2D91"/>
<path fill-rule="evenodd" clip-rule="evenodd" d="M47.2188 0H12.6875V12.1875H47.2188C50.5842 12.1875 53.3125 14.9158 53.3125 18.2813C53.3125 21.6467 50.5842 24.375 47.2188 24.375H12.6875V36.5625H47.2188C57.3152 36.5625 65.5 28.3777 65.5 18.2813C65.5 8.1848 57.3152 0 47.2188 0Z" fill="#5C2D91"/>
<path fill-rule="evenodd" clip-rule="evenodd" d="M47.2188 24.375H12.6875V36.5625H47.2188C50.5842 36.5625 53.3125 39.2908 53.3125 42.6563C53.3125 46.0217 50.5842 48.75 47.2188 48.75H12.6875V60.9375H47.2188C57.3152 60.9375 65.5 52.7527 65.5 42.6563C65.5 32.5598 57.3152 24.375 47.2188 24.375Z" fill="#5C2D91"/>
</svg>
