<svg width="80" height="81" viewBox="0 0 80 81" fill="none" xmlns="http://www.w3.org/2000/svg">
<rect y="0.494629" width="80" height="80" rx="10.6667" fill="#E6FAF5"/>
<g clip-path="url(#clip0_3393_17082)">
<path d="M42.448 26.831L45.751 23.546C46.4259 22.8727 47.3402 22.4946 48.2935 22.4946C49.2468 22.4946 50.1611 22.8727 50.836 23.546L56.947 29.693C57.6202 30.3678 57.9983 31.2822 57.9983 32.2355C57.9983 33.1887 57.6202 34.1031 56.947 34.778L53.698 38.054L42.448 26.831ZM40.045 51.743L50.917 40.817L50.395 41.339L52.114 39.593L40.9 28.424L40 29.243L28.831 40.493L28.705 40.367L28.822 40.484L24.484 44.813C23.8213 45.558 23.4476 46.516 23.431 47.513L22 54.803C22.0497 55.7308 22.427 56.611 23.0648 57.2867C23.7026 57.9624 24.5595 58.3899 25.483 58.493L32.98 57.062C33.9983 57.058 34.9804 56.6837 35.743 56.009L40 51.725L40.045 51.743ZM56.884 46.055L52.384 41.555L41.206 52.859L42.952 54.659L47.29 50.321C47.3917 50.2066 47.5156 50.1142 47.6542 50.0493C47.7928 49.9845 47.9432 49.9486 48.0962 49.9439C48.2491 49.9392 48.4015 49.9658 48.5438 50.0219C48.6861 50.0781 48.8155 50.1628 48.924 50.2707C49.0326 50.3786 49.1179 50.5075 49.1749 50.6495C49.2319 50.7915 49.2593 50.9437 49.2555 51.0966C49.2516 51.2496 49.2166 51.4002 49.1526 51.5392C49.0885 51.6782 48.9968 51.8026 48.883 51.905L44.5 56.225L45.634 57.377C46.3521 58.0892 47.3226 58.4889 48.334 58.4889C49.3454 58.4889 50.3159 58.0892 51.034 57.377L56.875 51.464C57.589 50.7455 57.9906 49.7742 57.9922 48.7613C57.9939 47.7484 57.5956 46.7758 56.884 46.055ZM34.465 23.609C33.7469 22.8967 32.7764 22.497 31.765 22.497C30.7536 22.497 29.7831 22.8967 29.065 23.609L23.116 29.576C22.4059 30.2952 22.0077 31.2652 22.0077 32.276C22.0077 33.2867 22.4059 34.2567 23.116 34.976L24.16 35.993L24.25 35.93L28.552 31.493C28.7653 31.2857 29.0511 31.1697 29.3485 31.1697C29.6459 31.1697 29.9317 31.2857 30.145 31.493C30.2498 31.5975 30.3329 31.7216 30.3896 31.8583C30.4463 31.995 30.4755 32.1415 30.4755 32.2895C30.4755 32.4374 30.4463 32.584 30.3896 32.7206C30.3329 32.8573 30.2498 32.9815 30.145 33.086L25.789 37.478L25.744 37.532L27.76 39.485L27.643 39.368L38.875 28.1L34.465 23.609Z" fill="#05CD99"/>
</g>
<defs>
<clipPath id="clip0_3393_17082">
<rect width="36" height="36" fill="white" transform="translate(22 22.4946)"/>
</clipPath>
</defs>
</svg>
