<svg width="66" height="66" viewBox="0 0 66 66" fill="none" xmlns="http://www.w3.org/2000/svg">
<rect width="66" height="66" fill="white"/>
<path d="M53.4453 16.6953L61.2235 24.4735L57.3344 28.3626L49.5562 20.5844L53.4453 16.6953Z" fill="#4318FF"/>
<path d="M47.6123 22.5291L55.3905 30.3072L29.1391 56.5586L20.3887 57.5308L21.361 48.7804L47.6123 22.5291Z" fill="#4318FF"/>
<path d="M45.668 28.3627L47.6125 30.3072L30.1116 47.8081L28.1671 45.8636L45.668 28.3627Z" fill="white"/>
<path fill-rule="evenodd" clip-rule="evenodd" d="M12.2794 31.7235C7.5759 27.02 6.99233 19.7567 10.5287 14.4181L22.0015 25.8909L25.8906 22.0018L14.4174 10.5286C19.7563 6.99084 27.0207 7.57397 31.7248 12.278C35.7117 16.2649 36.7384 22.0911 34.8049 27.0253L57.1978 49.4182L49.4197 57.1964L27.0268 34.8035C22.0926 36.7371 16.2663 35.7104 12.2794 31.7235Z" fill="#4318FF"/>
<rect x="37.4902" y="29.7129" width="2.75" height="13.4205" transform="rotate(-45 37.4902 29.7129)" fill="white"/>
<rect x="28.2676" y="39.9341" width="2.75" height="13.4205" transform="rotate(-45 28.2676 39.9341)" fill="white"/>
</svg>
