<svg width="66" height="66" viewBox="0 0 66 66" fill="none" xmlns="http://www.w3.org/2000/svg">
<rect width="66" height="66" fill="white"/>
<rect width="66" height="66" fill="white"/>
<path fill-rule="evenodd" clip-rule="evenodd" d="M35.9173 30.221L33.1383 33L39.9444 39.806C43.7033 43.5649 49.7976 43.5649 53.5565 39.806C57.3154 36.0472 57.3154 29.9528 53.5565 26.1939C49.7976 22.435 43.7033 22.435 39.9444 26.1939L38.078 28.0603L35.1611 25.1435L37.0276 23.2771C42.3974 17.9073 51.1035 17.9073 56.4733 23.2771C61.8431 28.6469 61.8431 37.3531 56.4733 42.7229C51.1035 48.0927 42.3974 48.0927 37.0276 42.7229L30.2215 35.9168L27.3047 33L30.2215 30.0832L33.0005 27.3042L35.9173 30.221Z" fill="#4318FF"/>
<path fill-rule="evenodd" clip-rule="evenodd" d="M26.0553 26.1939L32.8614 33L30.0724 35.789L32.9892 38.7058L35.7782 35.9168L38.695 33L35.7782 30.0832L28.9721 23.2771C23.6023 17.9073 14.8962 17.9073 9.52637 23.2771C4.15657 28.6469 4.15657 37.3531 9.52637 42.7229C14.8962 48.0927 23.6023 48.0927 28.9721 42.7229L30.8286 40.8664L27.9117 37.9496L26.0553 39.806C22.2964 43.5649 16.2021 43.5649 12.4432 39.806C8.6843 36.0472 8.6843 29.9528 12.4432 26.1939C16.2021 22.435 22.2964 22.435 26.0553 26.1939Z" fill="#4318FF"/>
</svg>
