<svg width="80" height="81" viewBox="0 0 80 81" fill="none" xmlns="http://www.w3.org/2000/svg">
<rect y="0.494629" width="80" height="80" rx="8" fill="#F4F1FF"/>
<path d="M49.5126 36.2076H30.6111L38.2595 25.2856H41.8642L49.5126 36.2087V36.2076ZM52.225 36.2076L44.5777 25.2856H48.3258C48.6369 25.2856 48.9445 25.3509 49.2287 25.4772C49.513 25.6035 49.7675 25.7881 49.9759 26.019L59.1711 36.2087H52.2261L52.225 36.2076ZM42.8831 56.627L53.3884 38.43H60C59.9223 38.8467 59.7267 39.2445 59.4111 39.5701L42.8831 56.627ZM50.8227 38.43L40.0918 57.0159L29.361 38.43H50.8227ZM37.5694 57.0937L20.5892 39.5701C20.2846 39.2566 20.0797 38.8599 20.0002 38.43H26.7952L37.5694 57.0937ZM27.8975 36.2076H20.8303L30.0244 26.019C30.2328 25.7881 30.4873 25.6035 30.7716 25.4772C31.0558 25.3509 31.3634 25.2856 31.6745 25.2856H35.547L27.8986 36.2087L27.8975 36.2076Z" fill="#3613CC"/>
</svg>
