<svg width="66" height="66" viewBox="0 0 66 66" fill="none" xmlns="http://www.w3.org/2000/svg">
<rect width="66" height="66" fill="white"/>
<rect width="66" height="66" fill="white"/>
<path d="M49.5 24.75L56.375 31.625L49.5 38.4257" stroke="#4318FF" stroke-width="4.125" stroke-linecap="round" stroke-linejoin="round"/>
<path d="M17.875 24.75L11 31.625L17.875 38.4257" stroke="#4318FF" stroke-width="4.125" stroke-linecap="round" stroke-linejoin="round"/>
<path d="M24.2705 55C19.7221 55 17.2966 51.1519 16.5805 48.8802C16.4298 48.4007 16.4923 47.8857 16.7545 47.4486C17.0167 47.0114 17.457 46.688 17.9786 46.5493C18.5002 46.4107 19.0603 46.4682 19.5357 46.7093C20.0112 46.9504 20.363 47.3552 20.5138 47.8347C20.5213 47.8579 21.6559 51.2423 24.2756 51.2423C25.99 51.2423 26.8296 49.1468 26.9406 48.8501C27.2406 47.7142 29.9535 37.3847 32.0538 29.5541H25.9094C25.6408 29.5541 25.3749 29.5055 25.1269 29.411C24.8788 29.3165 24.6534 29.1781 24.4635 29.0035C24.2736 28.8289 24.123 28.6217 24.0202 28.3936C23.9175 28.1655 23.8646 27.921 23.8646 27.6741C23.8646 27.4273 23.9175 27.1828 24.0202 26.9547C24.123 26.7266 24.2736 26.5194 24.4635 26.3448C24.6534 26.1702 24.8788 26.0317 25.1269 25.9373C25.3749 25.8428 25.6408 25.7942 25.9094 25.7942H33.0648C33.738 23.3161 34.2549 21.4663 34.4515 20.8659L34.6154 20.3536C35.5811 17.3168 37.5931 11 42.9534 11C47.6884 11 49.302 15.3349 49.4936 17.6252C49.5364 18.1225 49.3626 18.6152 49.0103 18.9947C48.658 19.3742 48.1562 19.6095 47.6153 19.6489C47.0743 19.6882 46.5385 19.5284 46.1257 19.2045C45.7129 18.8806 45.457 18.4192 45.4142 17.9219C45.4016 17.7758 45.0839 14.7623 42.9534 14.7623C40.659 14.7623 39.1714 19.4217 38.5411 21.4106L38.3671 21.9438C38.2133 22.4236 37.82 23.8261 37.283 25.7918H42.2726C42.5413 25.7918 42.8074 25.8405 43.0556 25.935C43.3038 26.0296 43.5294 26.1681 43.7194 26.3428C43.9094 26.5175 44.0601 26.7249 44.1629 26.9531C44.2657 27.1813 44.3187 27.426 44.3187 27.673C44.3187 27.92 44.2657 28.1646 44.1629 28.3929C44.0601 28.6211 43.9094 28.8285 43.7194 29.0032C43.5294 29.1778 43.3038 29.3164 43.0556 29.4109C42.8074 29.5055 42.5413 29.5541 42.2726 29.5541H36.2669C34.4508 36.3299 32.6523 43.1096 30.8713 49.8932C30.2611 51.7894 28.1861 55 24.2756 55H24.2705Z" fill="#4318FF"/>
</svg>
