<svg width="66" height="65" viewBox="0 0 66 65" fill="none" xmlns="http://www.w3.org/2000/svg">
<path d="M16.75 0C7.77537 0 0.5 7.27536 0.5 16.25C0.5 25.2246 7.77537 32.5 16.75 32.5H33V16.25C33 7.27536 25.7246 0 16.75 0Z" fill="#4318FF"/>
<path d="M0.5 16.25C0.5 16.25 0.5 16.25 0.5 16.25V48.75C0.5 57.7246 7.77537 65 16.75 65C25.7246 65 33 57.7246 33 48.75L33 32.5H16.75C7.77537 32.5 0.500006 25.2246 0.5 16.25Z" fill="#A48FFF"/>
<path d="M65.5 16.25C65.5 7.27537 58.2246 0 49.25 0C40.2754 0 33 7.27537 33 16.25V32.5H49.25C58.2246 32.5 65.5 25.2246 65.5 16.25Z" fill="#A48FFF"/>
<path d="M33 16.25V48.75C33 57.7246 40.2754 65 49.25 65C58.2246 65 65.5 57.7246 65.5 48.75V16.2801C65.4838 25.2409 58.2146 32.5 49.25 32.5H33L33 16.25Z" fill="#4318FF"/>
<path d="M49.25 0C49.25 0 49.25 0 49.25 0V0Z" fill="#4318FF"/>
</svg>
