<svg width="48" height="49" viewBox="0 0 48 49" fill="none" xmlns="http://www.w3.org/2000/svg">
<rect y="0.5" width="48" height="48" rx="8" fill="#FFF7E8"/>
<path d="M23.917 12.5C20.7344 12.5 17.6821 13.7643 15.4317 16.0147C13.1813 18.2652 11.917 21.3174 11.917 24.5C11.917 27.6826 13.1813 30.7348 15.4317 32.9853C17.6821 35.2357 20.7344 36.5 23.917 36.5C27.0996 36.5 30.1518 35.2357 32.4023 32.9853C34.6527 30.7348 35.917 27.6826 35.917 24.5C35.917 21.3174 34.6527 18.2652 32.4023 16.0147C30.1518 13.7643 27.0996 12.5 23.917 12.5ZM23.917 14.3621C25.66 14.3626 27.3734 14.8126 28.8918 15.6686C30.4101 16.5245 31.6821 17.7575 32.5849 19.2485C33.4877 20.7394 33.9908 22.438 34.0457 24.1801C34.1005 25.9223 33.7052 27.6491 32.898 29.1939C32.0907 30.7387 30.8988 32.0493 29.4373 32.999C27.9758 33.9488 26.294 34.5056 24.5545 34.6158C22.815 34.726 21.0765 34.3858 19.5068 33.6281C17.9371 32.8703 16.5893 31.7206 15.5936 30.2901C14.5354 28.7697 13.914 26.9885 13.7969 25.1399C13.6798 23.2913 14.0715 21.4459 14.9294 19.8042C15.7873 18.1625 17.0786 16.7873 18.6631 15.8278C20.2476 14.8684 22.0647 14.3614 23.917 14.3621Z" fill="#D25F00"/>
<path d="M19.9179 18.9931C19.7433 18.8185 19.5066 18.7205 19.2597 18.7205C19.0128 18.7205 18.776 18.8185 18.6014 18.9931C17.1411 20.4537 16.3207 22.4346 16.3207 24.5001C16.3207 26.5655 17.1411 28.5464 18.6014 30.0071C18.6873 30.096 18.7901 30.1669 18.9037 30.2157C19.0172 30.2645 19.1394 30.2902 19.263 30.2913C19.3867 30.2924 19.5092 30.2688 19.6237 30.222C19.7381 30.1752 19.842 30.1061 19.9295 30.0186C20.0169 29.9312 20.086 29.8273 20.1328 29.7128C20.1796 29.5984 20.2032 29.4758 20.2021 29.3522C20.201 29.2286 20.1754 29.1064 20.1266 28.9928C20.0778 28.8792 20.0068 28.7765 19.9179 28.6906C18.8067 27.5791 18.1824 26.0718 18.1824 24.5001C18.1824 22.9284 18.8067 21.421 19.9179 20.3095C20.0925 20.1349 20.1905 19.8982 20.1905 19.6513C20.1905 19.4044 20.0925 19.1676 19.9179 18.9931Z" fill="#D25F00"/>
<path d="M13.553 26.3274C13.4525 26.2577 13.3393 26.2085 13.2197 26.1825C13.1002 26.1566 12.9767 26.1544 12.8564 26.1762C12.736 26.198 12.6211 26.2433 12.5183 26.3095C12.4155 26.3757 12.3267 26.4615 12.257 26.5621C10.8623 28.5675 10.4192 30.4128 11.2329 31.8224C13.0353 34.9432 19.9752 33.7887 26.9542 29.7592C33.9313 25.7316 38.4021 20.2981 36.5996 17.1773C35.7952 15.7845 34.0114 15.2408 31.6223 15.427C31.4966 15.431 31.373 15.4604 31.2589 15.5136C31.1448 15.5667 31.0427 15.6424 30.9588 15.736C30.8748 15.8297 30.8106 15.9394 30.7702 16.0586C30.7298 16.1778 30.714 16.3039 30.7237 16.4293C30.7334 16.5547 30.7684 16.6769 30.8267 16.7885C30.8849 16.9 30.9651 16.9986 31.0625 17.0782C31.1599 17.1579 31.2724 17.217 31.3933 17.2519C31.5142 17.2869 31.6409 17.297 31.7657 17.2816C33.5161 17.1475 34.6277 17.4864 34.9871 18.1083C36.0261 19.9071 32.1623 24.6013 26.0232 28.1467C19.8821 31.692 13.8844 32.6901 12.8454 30.8913C12.4804 30.2582 12.7579 29.1038 13.7857 27.6234C13.8556 27.5231 13.9049 27.4099 13.931 27.2905C13.9571 27.171 13.9594 27.0476 13.9378 26.9272C13.9162 26.8069 13.8711 26.692 13.805 26.5891C13.739 26.4861 13.6534 26.3973 13.553 26.3274ZM22.6882 15.9279C22.2334 15.9279 21.7972 16.1086 21.4756 16.4302C21.1539 16.7518 20.9733 17.188 20.9733 17.6428C20.9733 18.0977 21.1539 18.5339 21.4756 18.8555C21.7972 19.1771 22.2334 19.3578 22.6882 19.3578C23.1431 19.3578 23.5793 19.1771 23.9009 18.8555C24.2225 18.5339 24.4032 18.0977 24.4032 17.6428C24.4032 17.188 24.2225 16.7518 23.9009 16.4302C23.5793 16.1086 23.1431 15.9279 22.6882 15.9279Z" fill="#D25F00"/>
<path d="M23.917 12.5C20.7344 12.5 17.6821 13.7643 15.4317 16.0147C13.1813 18.2652 11.917 21.3174 11.917 24.5C11.917 27.6826 13.1813 30.7348 15.4317 32.9853C17.6821 35.2357 20.7344 36.5 23.917 36.5C27.0996 36.5 30.1518 35.2357 32.4023 32.9853C34.6527 30.7348 35.917 27.6826 35.917 24.5C35.917 21.3174 34.6527 18.2652 32.4023 16.0147C30.1518 13.7643 27.0996 12.5 23.917 12.5ZM23.917 14.3621C25.66 14.3626 27.3734 14.8126 28.8918 15.6686C30.4101 16.5245 31.6821 17.7575 32.5849 19.2485C33.4877 20.7394 33.9908 22.438 34.0457 24.1801C34.1005 25.9223 33.7052 27.6491 32.898 29.1939C32.0907 30.7387 30.8988 32.0493 29.4373 32.999C27.9758 33.9488 26.294 34.5056 24.5545 34.6158C22.815 34.726 21.0765 34.3858 19.5068 33.6281C17.9371 32.8703 16.5893 31.7206 15.5936 30.2901C14.5354 28.7697 13.914 26.9885 13.7969 25.1399C13.6798 23.2913 14.0715 21.4459 14.9294 19.8042C15.7873 18.1625 17.0786 16.7873 18.6631 15.8278C20.2476 14.8684 22.0647 14.3614 23.917 14.3621Z" fill="#D25F00"/>
</svg>
