<svg width="96" height="96" viewBox="0 0 96 96" fill="none" xmlns="http://www.w3.org/2000/svg">
<rect width="96" height="96" rx="16" fill="#FFF7E8"/>
<path d="M47.834 24C41.4688 24 35.3643 26.5286 30.8634 31.0294C26.3625 35.5303 23.834 41.6348 23.834 48C23.834 54.3652 26.3625 60.4697 30.8634 64.9706C35.3643 69.4714 41.4688 72 47.834 72C54.1992 72 60.3037 69.4714 64.8045 64.9706C69.3054 60.4697 71.834 54.3652 71.834 48C71.834 41.6348 69.3054 35.5303 64.8045 31.0294C60.3037 26.5286 54.1992 24 47.834 24ZM47.834 27.7241C51.32 27.7252 54.7468 28.6252 57.7835 30.3371C60.8202 32.049 63.3642 34.515 65.1698 37.4969C66.9755 40.4789 67.9817 43.876 68.0914 47.3603C68.201 50.8446 67.4105 54.2983 65.796 57.3878C64.1814 60.4774 61.7976 63.0985 58.8745 64.998C55.9515 66.8975 52.5881 68.0112 49.109 68.2316C45.63 68.452 42.1529 67.7716 39.0136 66.2561C35.8742 64.7406 33.1787 62.4413 31.1872 59.5801C29.0709 56.5395 27.8281 52.9771 27.5939 49.2798C27.3597 45.5826 28.143 41.8918 29.8588 38.6084C31.5746 35.325 34.1572 32.5745 37.3262 30.6557C40.4952 28.7368 44.1293 27.7229 47.834 27.7241Z" fill="#D25F00"/>
<path d="M39.828 36.9854C39.4788 36.6363 39.0053 36.4402 38.5116 36.4402C38.0178 36.4402 37.5443 36.6363 37.1951 36.9854C34.2744 39.9067 32.6336 43.8685 32.6336 47.9994C32.6336 52.1303 34.2744 56.0921 37.1951 59.0135C37.3669 59.1913 37.5723 59.3332 37.7995 59.4307C38.0267 59.5283 38.271 59.5797 38.5183 59.5818C38.7655 59.584 39.0107 59.5369 39.2395 59.4433C39.4684 59.3496 39.6763 59.2114 39.8511 59.0365C40.0259 58.8617 40.1642 58.6538 40.2578 58.425C40.3514 58.1961 40.3986 57.9509 40.3964 57.7037C40.3943 57.4564 40.3429 57.2121 40.2453 56.9849C40.1477 56.7577 40.0059 56.5523 39.828 56.3805C37.6055 54.1576 36.3569 51.1428 36.3569 47.9994C36.3569 44.856 37.6055 41.8413 39.828 39.6183C40.1771 39.2691 40.3732 38.7956 40.3732 38.3018C40.3732 37.8081 40.1771 37.3346 39.828 36.9854Z" fill="#D25F00"/>
<path d="M27.106 51.6556C26.905 51.5162 26.6785 51.4177 26.4395 51.3658C26.2004 51.3139 25.9535 51.3096 25.7128 51.3532C25.4721 51.3968 25.2423 51.4874 25.0366 51.6198C24.8309 51.7522 24.6533 51.9238 24.514 52.1249C21.7246 56.1357 20.8383 59.8263 22.4657 62.6455C26.0707 68.8871 39.9504 66.5781 53.9084 58.5191C67.8626 50.4639 76.8042 39.597 73.1992 33.3554C71.5904 30.5697 68.0227 29.4823 63.2447 29.8547C62.9932 29.8627 62.7459 29.9216 62.5178 30.0278C62.2897 30.1341 62.0855 30.2854 61.9175 30.4728C61.7495 30.6602 61.6213 30.8796 61.5405 31.1179C61.4597 31.3562 61.428 31.6085 61.4474 31.8593C61.4668 32.1102 61.5368 32.3546 61.6533 32.5776C61.7698 32.8007 61.9302 32.9978 62.125 33.1572C62.3198 33.3165 62.5449 33.4346 62.7866 33.5046C63.0283 33.5745 63.2817 33.5947 63.5315 33.5639C67.0321 33.2958 69.2554 33.9736 69.9742 35.2174C72.0522 38.8149 64.3247 48.2034 52.0463 55.2941C39.7642 62.3848 27.7689 64.3809 25.6908 60.7834C24.9609 59.5172 25.5158 57.2083 27.5715 54.2476C27.7111 54.0468 27.8098 53.8205 27.862 53.5816C27.9142 53.3427 27.9188 53.0959 27.8756 52.8552C27.8324 52.6145 27.7421 52.3847 27.6101 52.1789C27.478 51.973 27.3067 51.7952 27.106 51.6556ZM45.3764 30.8565C44.4668 30.8565 43.5944 31.2178 42.9511 31.8611C42.3079 32.5043 41.9465 33.3767 41.9465 34.2864C41.9465 35.1961 42.3079 36.0685 42.9511 36.7117C43.5944 37.3549 44.4668 37.7163 45.3764 37.7163C46.2861 37.7163 47.1585 37.3549 47.8017 36.7117C48.445 36.0685 48.8063 35.1961 48.8063 34.2864C48.8063 33.3767 48.445 32.5043 47.8017 31.8611C47.1585 31.2178 46.2861 30.8565 45.3764 30.8565Z" fill="#D25F00"/>
<path d="M48 24C41.6348 24 35.5303 26.5286 31.0294 31.0294C26.5286 35.5303 24 41.6348 24 48C24 54.3652 26.5286 60.4697 31.0294 64.9706C35.5303 69.4714 41.6348 72 48 72C54.3652 72 60.4697 69.4714 64.9706 64.9706C69.4714 60.4697 72 54.3652 72 48C72 41.6348 69.4714 35.5303 64.9706 31.0294C60.4697 26.5286 54.3652 24 48 24ZM48 27.7241C51.486 27.7252 54.9128 28.6252 57.9495 30.3371C60.9862 32.049 63.5302 34.515 65.3359 37.4969C67.1415 40.4789 68.1477 43.876 68.2574 47.3603C68.3671 50.8446 67.5765 54.2983 65.962 57.3878C64.3475 60.4774 61.9636 63.0985 59.0406 64.998C56.1175 66.8975 52.7541 68.0112 49.2751 68.2316C45.796 68.452 42.319 67.7716 39.1796 66.2561C36.0403 64.7406 33.3447 62.4413 31.3532 59.5801C29.2369 56.5395 27.9941 52.9771 27.7599 49.2798C27.5257 45.5826 28.309 41.8918 30.0248 38.6084C31.7406 35.325 34.3232 32.5745 37.4922 30.6557C40.6612 28.7368 44.2953 27.7229 48 27.7241Z" fill="#D25F00"/>
</svg>
