<svg width="96" height="96" viewBox="0 0 96 96" fill="none" xmlns="http://www.w3.org/2000/svg">
<rect width="96" height="96" rx="16" fill="#F4F1FF"/>
<path d="M69.3891 72.8906H32.5467C31.5314 72.8906 30.7336 72.0929 30.7336 71.0775V60.0538C30.2985 60.3439 29.7908 60.5615 29.2831 60.7065H29.2106C28.5579 60.9241 27.8326 60.9966 27.1799 60.9966C23.1911 60.9966 20 57.733 20 53.8167C20 49.8279 23.2636 46.6368 27.1799 46.6368C27.9052 46.6368 28.6304 46.7818 29.3556 46.9994C29.4282 46.9994 29.5007 47.0719 29.5732 47.0719C29.9358 47.217 30.2985 47.362 30.5886 47.5071L30.7336 47.5796V34.2351C30.7336 33.2198 31.5314 32.422 32.5467 32.422H44.3682L44.1506 31.9869C43.788 31.4067 43.4979 30.8265 43.3529 30.1737V30.1012C43.1353 29.4485 43.0628 28.7233 43.0628 28.0705C43.0628 24.0817 46.3264 20.8906 50.2427 20.8906C54.2315 20.8906 57.4226 24.1542 57.4226 28.0705C57.4226 28.7958 57.2775 29.521 57.06 30.2463C57.06 30.3188 56.9874 30.3913 56.9874 30.4638C56.8424 30.8265 56.6973 31.1891 56.5523 31.4792L56.1897 32.3495H69.3891C70.4045 32.3495 71.2022 33.1472 71.2022 34.1626V50.4081C71.2022 50.9883 70.9121 51.5685 70.4045 51.9311C69.8968 52.2937 69.2441 52.2937 68.6639 52.0761L65.5453 50.6982C65.4728 50.6982 65.4728 50.6256 65.4003 50.6256C65.2552 50.5531 65.0377 50.4081 64.8201 50.3355H64.7476C64.3849 50.1905 64.0223 50.1905 63.6597 50.1905C61.7015 50.1905 60.106 51.786 60.106 53.7442C60.106 55.7023 61.7015 57.2979 63.6597 57.2979C64.0223 57.2979 64.3849 57.2254 64.675 57.1528C65.0377 57.0803 65.3278 56.8627 65.6179 56.7177C65.6904 56.6452 65.7629 56.6452 65.8354 56.5726L68.5914 55.2672C69.1716 54.9771 69.8243 55.0496 70.3319 55.3397C70.8396 55.6298 71.2022 56.2825 71.2022 56.8627V71.0775C71.2022 72.0929 70.4045 72.8906 69.3891 72.8906ZM34.3598 69.2644H67.576V59.8362H67.5035C66.9233 60.1989 66.3431 60.489 65.6904 60.7065H65.6179C64.9651 60.9241 64.2399 60.9966 63.5872 60.9966C59.5983 60.9966 56.4073 57.733 56.4073 53.8167C56.4073 49.8279 59.6708 46.6368 63.5872 46.6368C64.3124 46.6368 65.0377 46.7818 65.7629 46.9994C65.8354 46.9994 65.908 47.0719 65.9805 47.0719C66.3431 47.217 66.7057 47.362 66.9958 47.5071L67.5035 47.7247V36.1208H53.3612C52.781 36.1208 52.2008 35.8307 51.8382 35.323C51.4756 34.8153 51.4756 34.1626 51.6932 33.5824L53.2162 30.1012C53.2162 30.0287 53.2887 30.0287 53.2887 29.9562C53.3612 29.8111 53.5063 29.5936 53.5788 29.376V29.3035C53.7239 28.9408 53.7239 28.5782 53.7239 28.2156C53.7239 26.2574 52.1283 24.6619 50.1702 24.6619C48.212 24.6619 46.6165 26.2574 46.6165 28.2156C46.6165 28.5782 46.689 28.9408 46.7615 29.2309C46.834 29.5936 47.0516 29.8837 47.1967 30.1737C47.2692 30.2463 47.2692 30.3188 47.3417 30.3913L48.7922 33.5099C49.0823 34.0901 49.0098 34.7428 48.7197 35.2505C48.4296 35.7581 47.7768 36.1208 47.1967 36.1208H34.3598V50.3355C34.3598 50.9157 34.0697 51.4959 33.5621 51.8585C33.0544 52.2212 32.4017 52.2212 31.8215 52.0036L29.0656 50.7707C28.993 50.7707 28.993 50.6982 28.9205 50.6982C28.7755 50.6256 28.5579 50.4806 28.3403 50.4081H28.2678C27.9052 50.263 27.5425 50.263 27.1799 50.263C25.2218 50.263 23.6262 51.8585 23.6262 53.8167C23.6262 55.7749 25.2218 57.3704 27.1799 57.3704C27.5425 57.3704 27.9052 57.2979 28.1953 57.2254C28.5579 57.1528 28.848 56.9353 29.1381 56.7902C29.2106 56.7177 29.2831 56.7177 29.3556 56.6452L31.749 55.4848C32.3291 55.1947 32.9819 55.2672 33.4895 55.5573C33.9972 55.9199 34.3598 56.5001 34.3598 57.0803V69.2644Z" fill="#3613CC"/>
</svg>
