<svg width="96" height="96" viewBox="0 0 96 96" fill="none" xmlns="http://www.w3.org/2000/svg">
<rect width="96" height="96" rx="16" fill="#EBF6FF"/>
<path d="M45.8951 30.1433C48.6654 30.1433 50.9116 32.4017 50.9116 35.1871V42.0214L62.7926 43.8599L63.2173 43.9386C65.6754 44.4749 67.6863 46.6349 67.6863 50.0202V69.7527L67.6854 69.7517V76.0808H40.8804L40.8794 68.6042L37.5448 64.9367L31.7538 58.5261L29.8769 56.4083L29.4223 55.8721C26.816 52.5955 29.0004 49.1239 33.8848 49.1239C36.1498 49.1239 37.6751 50.1421 39.9748 52.4624L40.8926 53.3867V46.7286L40.8832 35.188C40.8804 32.4055 43.1229 30.1461 45.896 30.1433H45.8951ZM63.956 69.7517H44.6088V72.3299H63.9551V69.7517H63.956ZM45.8941 33.8933C45.1854 33.8933 44.6116 34.4717 44.6126 35.1842L44.6219 53.2761L44.6154 56.1317L44.6069 56.6699L44.591 56.8386L44.5573 57.0139L44.5329 57.1068L44.5085 57.1724L44.3463 57.5324L44.1457 57.8099L43.3282 58.3536L42.7441 58.3864V58.4483C41.4785 58.4483 40.3966 57.9196 39.2416 56.9483L39.0091 56.7486C38.8391 56.598 38.6722 56.4439 38.5085 56.2864L38.141 55.9274L37.1323 54.9092L36.9401 54.7217L36.5773 54.3749L36.2388 54.0683C35.2591 53.2096 34.5804 52.8739 33.8838 52.8739L33.1976 52.8777L32.8019 52.8889L32.591 52.9021C32.561 52.9045 32.531 52.9073 32.501 52.9105L32.3491 52.9321C32.1035 52.9771 32.0407 53.0567 32.0988 53.1964L32.1429 53.278L32.2085 53.3717L32.2929 53.4805L32.4466 53.6652L33.4732 54.838L35.7785 57.4124L43.5644 66.0017H63.9569V50.0202C63.9569 48.5614 63.2988 47.8171 62.4757 47.6155L62.3576 47.5902L47.1823 45.2464V35.1871C47.1823 34.4727 46.6057 33.8933 45.8941 33.8933Z" fill="#2C86CC"/>
<path d="M37.5994 23.2993C38.6815 22.2008 39.9714 21.3284 41.3938 20.7329C42.8163 20.1375 44.3429 19.8308 45.885 19.8308C47.4271 19.8308 48.9537 20.1375 50.3762 20.7329C51.7986 21.3284 53.0884 22.2008 54.1706 23.2993C57.36 26.5215 58.4006 31.2493 56.9831 35.4765L56.8828 35.7634L53.3578 34.4547C53.884 33.0129 53.9903 31.4514 53.6642 29.9517C53.3381 28.4519 52.593 27.0755 51.5156 25.9825C50.7803 25.2358 49.9037 24.6429 48.9371 24.2382C47.9704 23.8335 46.9329 23.6251 45.885 23.6251C44.837 23.6251 43.7996 23.8335 42.8329 24.2382C41.8662 24.6429 40.9897 25.2358 40.2544 25.9825C39.209 27.0426 38.4758 28.3701 38.1351 29.8194C37.7945 31.2688 37.8595 32.7839 38.3231 34.1987L38.4122 34.4575L34.8881 35.7681C33.3225 31.4687 34.3369 26.5956 37.5994 23.2993Z" fill="#2C86CC"/>
</svg>
