<svg width="96" height="96" viewBox="0 0 96 96" fill="none" xmlns="http://www.w3.org/2000/svg">
<rect width="96" height="96" rx="16" fill="#EDEDFD"/>
<path d="M14.3186 55.9639C14.3186 55.3389 14.5334 54.8164 14.9631 54.3965C15.4025 53.9766 15.9836 53.7666 16.7062 53.7666C17.4289 53.7666 18.0051 53.9766 18.4348 54.3965C18.8742 54.8164 19.0939 55.3389 19.0939 55.9639C19.0939 56.5889 18.8742 57.1113 18.4348 57.5312C18.0051 57.9512 17.4289 58.1611 16.7062 58.1611C15.9836 58.1611 15.4025 57.9512 14.9631 57.5312C14.5334 57.1113 14.3186 56.5889 14.3186 55.9639ZM42.2367 36.6719V58H37.8422L29.2729 43.7031V58H24.8783V36.6719H29.2729L37.8568 50.9834V36.6719H42.2367ZM62.1715 54.5723V58H50.8189V54.5723H62.1715ZM52.2545 36.6719V58H47.86V36.6719H52.2545ZM60.692 45.3584V48.6982H50.8189V45.3584H60.692ZM62.1568 36.6719V40.1143H50.8189V36.6719H62.1568ZM76.3641 36.6719V58H71.9842V36.6719H76.3641ZM82.9266 36.6719V40.1143H65.5242V36.6719H82.9266Z" fill="#5153D5"/>
</svg>
