<svg width="48" height="49" viewBox="0 0 48 49" fill="none" xmlns="http://www.w3.org/2000/svg">
<rect y="0.5" width="48" height="48" rx="8" fill="#F4F1FF"/>
<g clip-path="url(#clip0_2735_22413)">
<path d="M35.0045 18.3208L34.9951 18.2735C34.9856 18.2294 34.973 18.1885 34.9541 18.1444C34.951 18.1349 34.9478 18.1223 34.9415 18.1129C34.9195 18.0625 34.8943 18.0183 34.8659 17.9742L34.8407 17.9396C34.8155 17.9049 34.7903 17.8734 34.7588 17.8419C34.7493 17.8325 34.7399 17.8199 34.7304 17.8104C34.6926 17.7726 34.6517 17.7379 34.6076 17.7064C34.6013 17.7033 34.5918 17.697 34.5855 17.6938C34.5572 17.6749 34.5288 17.656 34.4973 17.6403L24.4152 12.5992C24.1474 12.4669 23.8355 12.4669 23.5709 12.5992L13.4888 17.6403C13.4573 17.656 13.429 17.6749 13.4006 17.6938C13.3943 17.697 13.3849 17.7033 13.3786 17.7064C13.3344 17.7379 13.2935 17.7726 13.2557 17.8104C13.2462 17.8199 13.2368 17.8293 13.2273 17.8419C13.199 17.8734 13.1706 17.9049 13.1454 17.9396L13.1202 17.9742C13.0918 18.0183 13.0666 18.0656 13.0446 18.1129C13.0414 18.1223 13.0383 18.1349 13.032 18.1444C13.0162 18.1853 13.0036 18.2294 12.991 18.2735L12.9816 18.3208C12.9721 18.3775 12.9658 18.4342 12.9658 18.4909V30.5138C12.9658 30.873 13.1675 31.1975 13.4888 31.3582L23.5709 36.3992C23.5772 36.4023 23.5866 36.4055 23.5961 36.4086C23.6402 36.4307 23.6906 36.4464 23.7379 36.459C23.7568 36.4653 23.7725 36.4716 23.7914 36.4748C23.8576 36.4905 23.9269 36.5 23.9962 36.5C24.0655 36.5 24.1348 36.4905 24.201 36.4748C24.2199 36.4716 24.2357 36.4622 24.2546 36.459C24.305 36.4464 24.3522 36.4275 24.3963 36.4086C24.4026 36.4055 24.4121 36.4023 24.4215 36.3992L34.5036 31.3582C34.6605 31.2798 34.7926 31.1593 34.8849 31.0102C34.9773 30.8611 35.0264 30.6892 35.0266 30.5138V18.4909C35.0203 18.4342 35.014 18.3775 35.0045 18.3208ZM23.9931 14.5054L31.961 18.4909L29.075 19.9339L24.4089 17.6434C24.4026 17.6403 24.3932 17.6403 24.3869 17.6371C24.3459 17.6182 24.3018 17.6025 24.2577 17.5899C24.2388 17.5836 24.2199 17.5773 24.1979 17.571C24.15 17.5614 24.1016 17.555 24.0529 17.5521C24.034 17.5521 24.0151 17.5457 23.9962 17.5457H23.9899C23.8544 17.5457 23.7253 17.5741 23.6087 17.6277C23.6055 17.6277 23.6024 17.6308 23.5992 17.6308L18.7346 19.8457L16.0251 18.4909L23.9931 14.5054ZM23.9931 28.4848L20.7321 26.8559L23.9836 25.0285L27.1815 26.8905L23.9931 28.4848ZM28.1362 21.5786V25.2617L24.9383 23.3965V20.0096L28.1362 21.5786ZM23.0479 23.387L19.6609 25.29V21.503L23.0479 19.9591V23.387ZM14.8562 24.5024V20.019L17.7705 21.4777V26.9032C17.7705 26.9189 17.7737 26.9347 17.7768 26.9536L17.7863 27.0544L17.8052 27.1458C17.8115 27.1741 17.821 27.2025 17.8304 27.2308C17.843 27.2623 17.8556 27.2938 17.8714 27.3253C17.8777 27.3411 17.884 27.3537 17.8903 27.3694C17.8934 27.3789 17.9029 27.382 17.906 27.3915C17.9438 27.4577 17.9879 27.5175 18.0415 27.5711L18.051 27.5805C18.1184 27.6457 18.1948 27.7008 18.2778 27.7444C18.2904 27.7507 18.2999 27.757 18.3125 27.7633C18.3219 27.7664 18.3282 27.7727 18.3345 27.779L23.0479 30.1263V34.0236L14.8562 29.9278V24.5024ZM33.1299 29.9278L24.9383 34.0236V30.1263L29.5035 27.8452C29.6705 27.7618 29.8089 27.6308 29.9014 27.4687C29.994 27.3067 30.0364 27.1208 30.0234 26.9347C30.0234 26.9252 30.0265 26.9158 30.0265 26.9063V21.5723L33.1299 20.019V29.9278Z" fill="#3613CC"/>
</g>
<defs>
<clipPath id="clip0_2735_22413">
<rect width="24" height="24" fill="white" transform="translate(12 12.5)"/>
</clipPath>
</defs>
</svg>
