<svg width="96" height="96" viewBox="0 0 96 96" fill="none" xmlns="http://www.w3.org/2000/svg">
<rect width="96" height="96" rx="16" fill="#FFECE8"/>
<path d="M44.75 27.7683H51.25V34.2683H44.75V27.7683Z" fill="#B71C1C"/>
<path d="M46.291 52.9558C46.291 53.4407 46.4708 53.9057 46.7908 54.2485C47.1107 54.5913 47.5447 54.7839 47.9973 54.7839C48.4498 54.7839 48.8838 54.5913 49.2038 54.2485C49.5238 53.9057 49.7035 53.4407 49.7035 52.9558C49.7035 52.471 49.5238 52.006 49.2038 51.6631C48.8838 51.3203 48.4498 51.1277 47.9973 51.1277C47.5447 51.1277 47.1107 51.3203 46.7908 51.6631C46.4708 52.006 46.291 52.471 46.291 52.9558Z" fill="#B71C1C"/>
<path d="M70.75 34.2683C72.5424 34.2683 74 32.8107 74 31.0183C74 29.2259 72.5424 27.7683 70.75 27.7683C69.5524 27.7683 68.5156 28.4264 67.9518 29.3933H52.875V27.7683C52.875 27.3373 52.7038 26.924 52.399 26.6193C52.0943 26.3145 51.681 26.1433 51.25 26.1433H44.75C44.319 26.1433 43.9057 26.3145 43.601 26.6193C43.2962 26.924 43.125 27.3373 43.125 27.7683V29.3933H28.0482C27.4844 28.4264 26.4476 27.7683 25.25 27.7683C23.4576 27.7683 22 29.2259 22 31.0183C22 32.8107 23.4576 34.2683 25.25 34.2683C26.4476 34.2683 27.4844 33.6102 28.0482 32.6433H35.4339C27.3836 37.1234 22 45.7473 22 55.3933C22 55.8243 22.1712 56.2376 22.476 56.5424C22.7807 56.8471 23.194 57.0183 23.625 57.0183C24.056 57.0183 24.4693 56.8471 24.774 56.5424C25.0788 56.2376 25.25 55.8243 25.25 55.3933C25.25 44.6911 32.8258 35.4383 43.125 33.1812V34.2683C43.125 34.6993 43.2962 35.1126 43.601 35.4174C43.9057 35.7221 44.319 35.8933 44.75 35.8933H51.25C51.681 35.8933 52.0943 35.7221 52.399 35.4174C52.7038 35.1126 52.875 34.6993 52.875 34.2683V33.1796C63.1775 35.4367 70.75 44.6846 70.75 55.3933C70.75 55.8243 70.9212 56.2376 71.226 56.5424C71.5307 56.8471 71.944 57.0183 72.375 57.0183C72.806 57.0183 73.2193 56.8471 73.524 56.5424C73.8288 56.2376 74 55.8243 74 55.3933C74 45.7408 68.6164 37.1218 60.5661 32.6433H67.9518C68.5156 33.6102 69.5524 34.2683 70.75 34.2683ZM49.625 32.6433H46.375V29.3933H49.625V32.6433Z" fill="#B71C1C"/>
<path d="M60.8298 62.7899L49.4548 40.0399C48.9023 38.9382 47.0986 38.9382 46.5461 40.0399L35.1711 62.7899C35.0271 63.0784 34.9722 63.4031 35.0133 63.7229C35.0543 64.0426 35.1896 64.3429 35.4018 64.5856L40.1517 70.0163H39.8755C39.4445 70.0163 39.0312 70.1875 38.7264 70.4923C38.4217 70.797 38.2505 71.2103 38.2505 71.6413C38.2505 72.0723 38.4217 72.4856 38.7264 72.7904C39.0312 73.0951 39.4445 73.2663 39.8755 73.2663H56.1255C56.5564 73.2663 56.9698 73.0951 57.2745 72.7904C57.5793 72.4856 57.7505 72.0723 57.7505 71.6413C57.7505 71.2103 57.5793 70.797 57.2745 70.4923C56.9698 70.1875 56.5564 70.0163 56.1255 70.0163H55.8492L60.5991 64.5872C61.033 64.0899 61.124 63.3798 60.8298 62.7899ZM48.0005 51.9382C48.4928 51.9382 48.8942 52.3932 48.8942 52.9538C48.8942 53.5144 48.4928 53.9694 48.0005 53.9694C47.5081 53.9694 47.1067 53.5144 47.1067 52.9538C47.1067 52.3932 47.5081 51.9382 48.0005 51.9382ZM51.5283 70.0163H44.4726L38.5657 63.2677L47.188 46.0248V50.4659C46.1983 50.8234 45.4817 51.7984 45.4817 52.9538C45.4817 54.4098 46.6127 55.5944 48.0005 55.5944C49.3882 55.5944 50.5192 54.4098 50.5192 52.9538C50.5192 51.7968 49.8026 50.8234 48.813 50.4676V46.0248L57.4352 63.2661L51.5267 70.0163H51.5283Z" fill="#B71C1C"/>
</svg>
