<svg width="164" height="37" viewBox="0 0 164 37" fill="none" xmlns="http://www.w3.org/2000/svg">
<path d="M8.9701 0.739868C4.01605 0.739868 0 4.75591 0 9.70996C0 14.664 4.01605 18.6801 8.9701 18.6801H17.9402V9.70996C17.9402 4.75591 13.9241 0.739868 8.9701 0.739868Z" fill="#4318FF"/>
<path d="M0 9.70996C0 9.70996 0 9.70996 0 9.70996V27.6501C0 32.6042 4.01605 36.6202 8.9701 36.6202C13.9241 36.6202 17.9402 32.6042 17.9402 27.6502L17.9402 18.68H8.9701C4.01605 18.68 3.51336e-06 14.664 0 9.70996Z" fill="#A48FFF"/>
<path d="M35.8797 9.70996C35.8797 4.75591 31.8636 0.739868 26.9096 0.739868C21.9555 0.739868 17.9395 4.75591 17.9395 9.70996V18.6801H26.9096C31.8636 18.6801 35.8797 14.664 35.8797 9.70996Z" fill="#A48FFF"/>
<path d="M17.9395 9.70996V27.6501C17.9395 32.6042 21.9555 36.6202 26.9096 36.6202C31.8636 36.6202 35.8797 32.6042 35.8797 27.6502V9.72658C35.8707 14.673 31.8581 18.6801 26.9096 18.6801H17.9395L17.9395 9.70996Z" fill="#4318FF"/>
<path d="M26.9096 0.739868C26.9096 0.739868 26.9096 0.739868 26.9096 0.739868V0.739868Z" fill="#4318FF"/>
<path d="M59.0205 5.39981H61.6824V20.2796H58.4539V11.5958L55.046 16.3825H53.2442L49.873 11.5555V20.2796H46.6445V5.39981H49.335L54.1492 12.7029L59.0205 5.39981Z" fill="#4318FF"/>
<path d="M71.7795 5.39981L77.833 20.2796H74.1642L73.0228 17.3528H67.377L66.2763 20.2796H62.8114L68.7018 5.39981H71.7795ZM71.9222 14.4743L70.1489 9.88473L68.4572 14.4743H71.9222Z" fill="#4318FF"/>
<path d="M89.4104 16.0041C89.4104 17.0911 89.1183 17.9769 88.534 18.6613C87.9633 19.3457 87.2432 19.8422 86.3735 20.1509C85.5039 20.4461 84.6139 20.5937 83.7035 20.5937C82.3311 20.5937 81.0742 20.2851 79.9328 19.6677C78.7914 19.037 78.0305 18.1312 77.65 16.9502L80.4627 15.36C80.7617 16.0444 81.1965 16.5745 81.7672 16.9502C82.3515 17.326 83.0377 17.5139 83.8258 17.5139C84.41 17.5139 84.8788 17.4065 85.2321 17.1918C85.599 16.9637 85.7824 16.6349 85.7824 16.2054C85.7824 15.8565 85.6601 15.568 85.4156 15.3399C85.171 15.1117 84.8652 14.9239 84.4984 14.7762C84.1315 14.6286 83.6151 14.4609 82.9493 14.273C81.971 13.9912 81.1693 13.7094 80.5442 13.4276C79.9328 13.1457 79.4029 12.723 78.9544 12.1594C78.506 11.5823 78.2818 10.8308 78.2818 9.90486C78.2818 8.88496 78.5468 8.0328 79.0767 7.3484C79.6203 6.66399 80.32 6.15404 81.1761 5.81854C82.0457 5.48305 82.9765 5.3153 83.9684 5.3153C85.2729 5.3153 86.4143 5.61054 87.3926 6.20101C88.371 6.79148 89.0028 7.63021 89.2882 8.71721L86.4347 10.3075C86.2173 9.70356 85.8776 9.23387 85.4156 8.89838C84.9672 8.56288 84.4168 8.39514 83.7646 8.39514C83.2075 8.39514 82.7523 8.52263 82.399 8.7776C82.0593 9.03258 81.8895 9.36136 81.8895 9.76395C81.8895 10.0726 82.005 10.3343 82.236 10.549C82.4805 10.7637 82.7795 10.9382 83.1328 11.0724C83.4861 11.2066 83.9888 11.3743 84.641 11.5756C85.6466 11.8709 86.4618 12.1661 87.0869 12.4613C87.7119 12.7431 88.2555 13.1726 88.7175 13.7496C89.1795 14.3267 89.4104 15.0782 89.4104 16.0041Z" fill="#4318FF"/>
<path d="M98.472 5.39981L104.526 20.2796H100.857L99.7153 17.3528H94.0695L92.9689 20.2796H89.5039L95.3943 5.39981H98.472ZM98.6147 14.4743L96.8415 9.88473L95.1498 14.4743H98.6147Z" fill="#4318FF"/>
<path d="M120.373 16.0041C120.373 17.0911 120.081 17.9769 119.496 18.6613C118.926 19.3457 118.206 19.8422 117.336 20.1509C116.466 20.4461 115.576 20.5937 114.666 20.5937C113.294 20.5937 112.037 20.2851 110.895 19.6677C109.754 19.037 108.993 18.1312 108.612 16.9502L111.425 15.36C111.724 16.0444 112.159 16.5745 112.73 16.9502C113.314 17.326 114 17.5139 114.788 17.5139C115.372 17.5139 115.841 17.4065 116.195 17.1918C116.561 16.9637 116.745 16.6349 116.745 16.2054C116.745 15.8565 116.623 15.568 116.378 15.3399C116.133 15.1117 115.828 14.9239 115.461 14.7762C115.094 14.6286 114.578 14.4609 113.912 14.273C112.933 13.9912 112.132 13.7094 111.507 13.4276C110.895 13.1457 110.365 12.723 109.917 12.1594C109.468 11.5823 109.244 10.8308 109.244 9.90486C109.244 8.88496 109.509 8.0328 110.039 7.3484C110.583 6.66399 111.282 6.15404 112.139 5.81854C113.008 5.48305 113.939 5.3153 114.931 5.3153C116.235 5.3153 117.377 5.61054 118.355 6.20101C119.333 6.79148 119.965 7.63021 120.251 8.71721L117.397 10.3075C117.18 9.70356 116.84 9.23387 116.378 8.89838C115.93 8.56288 115.379 8.39514 114.727 8.39514C114.17 8.39514 113.715 8.52263 113.361 8.7776C113.022 9.03258 112.852 9.36136 112.852 9.76395C112.852 10.0726 112.967 10.3343 113.198 10.549C113.443 10.7637 113.742 10.9382 114.095 11.0724C114.449 11.2066 114.951 11.3743 115.603 11.5756C116.609 11.8709 117.424 12.1661 118.049 12.4613C118.674 12.7431 119.218 13.1726 119.68 13.7496C120.142 14.3267 120.373 15.0782 120.373 16.0041Z" fill="#4318FF"/>
<path d="M129.618 19.5872C128.857 20.2582 127.784 20.5937 126.398 20.5937C125.161 20.5937 124.169 20.2783 123.422 19.6476C122.674 19.0035 122.301 17.8695 122.301 16.2457V12.6828H120.364V9.92499H122.301V6.58347H125.623V9.92499H128.843V12.6828H125.623V15.6619C125.623 16.3329 125.725 16.8563 125.929 17.2321C126.133 17.5944 126.52 17.7756 127.091 17.7756C127.553 17.7756 128.008 17.6212 128.456 17.3126L129.618 19.5872Z" fill="#4318FF"/>
<path d="M134.922 9.64318C136.444 9.64318 137.619 10.0659 138.448 10.9113C139.277 11.7434 139.692 12.9243 139.692 14.4542V17.3669V20.2796H136.656C136.656 19.7482 136.656 19.3939 136.656 19.2048C136.33 19.6745 136.036 20.0234 135.574 20.2515C135.112 20.4796 134.528 20.5937 133.822 20.5937C133.074 20.5937 132.388 20.4662 131.763 20.2112C131.152 19.9428 130.662 19.5671 130.295 19.084C129.942 18.5874 129.766 18.0037 129.766 17.3327C129.766 16.6349 129.963 16.0243 130.357 15.5009C130.764 14.9641 131.308 14.5548 131.987 14.273C132.667 13.9912 133.407 13.8503 134.209 13.8503C134.956 13.8503 135.69 13.9778 136.41 14.2327C136.315 12.9176 135.71 12.26 134.596 12.26C133.659 12.26 132.979 12.6895 132.558 13.5483L130.214 12.1996C130.608 11.4079 131.213 10.7839 132.028 10.3276C132.857 9.87131 133.822 9.64318 134.922 9.64318ZM136.41 16.2658C135.88 16.1316 135.377 16.0645 134.902 16.0645C134.345 16.0645 133.903 16.1652 133.577 16.3665C133.251 16.5678 133.088 16.8362 133.088 17.1717C133.088 17.4803 133.21 17.7219 133.455 17.8963C133.699 18.0708 134.012 18.158 134.392 18.158C134.909 18.158 135.371 18.0104 135.778 17.7152C136.199 17.4199 136.41 17.024 136.41 16.5275V16.2658Z" fill="#4318FF"/>
<path d="M146.423 17.7554C146.831 17.7554 147.17 17.6682 147.442 17.4937C147.728 17.3059 147.979 17.0375 148.196 16.6886L150.703 18.1178C150.377 18.9229 149.827 19.5403 149.052 19.9697C148.278 20.3857 147.401 20.5937 146.423 20.5937C145.486 20.5937 144.595 20.3924 143.753 19.9898C142.924 19.5738 142.245 18.9565 141.715 18.1379C141.198 17.3059 140.94 16.2994 140.94 15.1184C140.94 13.9375 141.198 12.9377 141.715 12.1191C142.245 11.2871 142.924 10.6698 143.753 10.2672C144.595 9.85118 145.486 9.64318 146.423 9.64318C147.401 9.64318 148.278 9.85789 149.052 10.2873C149.827 10.7033 150.377 11.3072 150.703 12.099L148.196 13.5483C147.965 13.1994 147.707 12.931 147.422 12.7431C147.15 12.5553 146.817 12.4613 146.423 12.4613C145.798 12.4613 145.295 12.7096 144.915 13.2061C144.548 13.6892 144.365 14.3267 144.365 15.1184C144.365 15.9102 144.548 16.5476 144.915 17.0308C145.295 17.5139 145.798 17.7554 146.423 17.7554Z" fill="#4318FF"/>
<path d="M158.917 14.0113L163.136 20.2796H159.182L156.696 16.4671L155.187 18.0976V20.2796H151.865V5.04553H155.187V14.1522L158.836 9.92499H162.647L158.917 14.0113Z" fill="#4318FF"/>
<path d="M53.6741 23.7349H54.6545V31.9393H53.4573L53.4589 25.8751L50.9484 29.799H50.231L47.84 25.8751V31.9393H46.6445V23.7349H47.6716L50.5897 28.3721L53.6741 23.7349Z" fill="#4318FF"/>
<path d="M59.4647 25.9105C60.1722 25.9105 60.7428 26.1186 61.1764 26.5347C61.6177 26.9509 61.8275 27.5333 61.8275 28.3127L61.8383 31.9393H60.8113C60.8113 31.5825 60.8113 31.338 60.8113 31.1853C60.4461 31.7528 59.8245 32.0582 59.0181 32.0582C58.6225 32.0582 58.2474 31.9902 57.9127 31.8465C57.5856 31.7027 57.3231 31.4946 57.1253 31.2222C56.9275 30.9498 56.8064 30.601 56.8064 30.2151C56.8064 29.6325 57.0682 29.1906 57.5475 28.8501C58.0268 28.5096 58.6392 28.3394 59.3848 28.3394C59.8032 28.3394 60.2331 28.3961 60.6743 28.5096V28.4869C60.6743 27.9497 60.5678 27.5562 60.3548 27.3065C60.1418 27.0493 59.8222 26.9206 59.3962 26.9206C59.0539 26.9206 58.7648 26.9963 58.5289 27.1476C58.3007 27.2914 58.1067 27.5032 57.9469 27.7832L57.0796 27.2838C57.2698 26.8677 57.5779 26.5347 58.004 26.285C58.43 26.0353 58.9169 25.9105 59.4647 25.9105ZM60.6743 29.3949C60.2178 29.2814 59.8184 29.2247 59.4761 29.2247C59.0196 29.2247 58.6659 29.3117 58.4148 29.4857C58.1637 29.6597 58.0382 29.9019 58.0382 30.2121C58.0382 30.4921 58.1409 30.7153 58.3463 30.8817C58.5517 31.0406 58.8218 31.1201 59.1566 31.1201C59.575 31.1201 59.9325 31.0028 60.2292 30.7682C60.526 30.5261 60.6743 30.1932 60.6743 29.7694V29.3949Z" fill="#4318FF"/>
<path d="M67.0877 28.491L69.5384 31.9393H68.1005L66.3704 29.3828L65.2944 30.4391V31.9393H64.2185V23.7349H65.2944V28.9666L67.8837 26.0535H69.2873L67.0877 28.491Z" fill="#4318FF"/>
<path d="M73.3334 25.9105C73.8507 25.9105 74.3034 26.0315 74.6914 26.2737C75.0794 26.5082 75.3799 26.8336 75.5929 27.2498C75.8059 27.6584 75.9124 28.1199 75.9124 28.6345C75.9124 28.8085 75.8934 29.0166 75.8554 29.2587H71.7015C71.7472 29.8489 71.9298 30.2953 72.2493 30.598C72.5688 30.8931 72.9682 31.0406 73.4475 31.0406C74.0713 31.0406 74.524 30.7834 74.8055 30.2688L75.6842 30.7796C75.532 31.1882 75.2429 31.506 74.8169 31.733C74.3909 31.9524 73.8891 32.0582 73.3642 32.0582C72.824 32.0582 72.3596 31.9448 71.9183 31.7103C71.4771 31.4682 71.1233 31.1125 70.8571 30.6434C70.5984 30.1743 70.4352 29.6174 70.4352 28.9666C70.4352 28.3311 70.5984 27.7794 70.8571 27.3179C71.1233 26.8563 71.4733 26.5082 71.9069 26.2737C72.3482 26.0315 72.8237 25.9105 73.3334 25.9105ZM73.2877 26.932C72.8997 26.932 72.5612 27.0568 72.2721 27.3065C71.9906 27.5486 71.8118 27.9043 71.7358 28.3734H74.68C74.6495 27.9194 74.5088 27.5676 74.2577 27.3179C74.0067 27.0606 73.6833 26.932 73.2877 26.932Z" fill="#4318FF"/>
<path d="M84.1897 31.0066C84.7222 31.0066 85.1483 30.7607 85.4678 30.2688L86.3693 30.7909C86.1639 31.2147 85.871 31.5325 85.4906 31.7443C85.1178 31.9562 84.6705 32.0582 84.1836 32.0582C83.651 32.0582 83.1817 31.9373 82.7404 31.6876C82.2992 31.4379 81.9492 31.0823 81.6905 30.6207C81.4319 30.1516 81.3025 29.6068 81.3025 28.9863C81.3025 28.3658 81.4143 27.823 81.673 27.3614C81.9317 26.8923 82.2992 26.5347 82.7404 26.285C83.1817 26.0353 83.651 25.9105 84.1836 25.9105C84.6705 25.9105 85.1178 26.0164 85.4906 26.2283C85.871 26.4401 86.1301 26.7594 86.3355 27.1831L85.4986 27.6587C85.1791 27.1744 84.7222 26.9774 84.1897 26.9774C83.6952 26.9774 83.2958 27.159 82.9915 27.5222C82.6872 27.8778 82.5099 28.3462 82.5099 28.9666C82.5099 29.5947 82.6872 30.1099 82.9915 30.4731C83.2958 30.8288 83.6952 31.0066 84.1897 31.0066Z" fill="#4318FF"/>
<path d="M91.0834 25.9105C91.7148 25.9105 92.2208 26.1223 92.6011 26.5461C92.9891 26.9622 93.1831 27.56 93.1831 28.3394V31.9393H92.0077V28.6912C92.0077 28.1464 91.905 27.7265 91.6996 27.4314C91.4942 27.1363 91.1823 26.9887 90.7639 26.9887C90.3378 26.9887 89.9727 27.14 89.6684 27.4427C89.3716 27.7378 89.2233 28.1615 89.2233 28.7139V31.9393H88.0479V23.7349H89.2233V26.8979C89.4211 26.5726 89.6798 26.3266 89.9993 26.1602C90.3264 25.9937 90.6878 25.9105 91.0834 25.9105Z" fill="#4318FF"/>
<path d="M97.8493 25.9105C98.5568 25.9105 99.1274 26.1186 99.561 26.5347C100.002 26.9509 100.223 27.5486 100.223 28.328V31.8987H99.187C99.187 31.542 99.187 31.3636 99.187 31.2109C98.8218 31.7784 98.1992 32.0621 97.3928 32.0621C96.9972 32.0621 96.632 31.9902 96.2973 31.8465C95.9701 31.7027 95.7077 31.4946 95.5099 31.2222C95.3121 30.9498 95.2132 30.6207 95.2132 30.2348C95.2132 29.6522 95.4528 29.1906 95.9321 28.8501C96.4114 28.5096 97.0238 28.3394 97.7694 28.3394C98.1878 28.3394 98.6176 28.3961 99.0589 28.5096V28.4869C99.0589 27.9497 98.9524 27.5562 98.7394 27.3065C98.5263 27.0493 98.2068 26.9206 97.7808 26.9206C97.4384 26.9206 97.1493 26.9963 96.9135 27.1476C96.6853 27.2914 96.4913 27.5032 96.3315 27.7832L95.4642 27.2838C95.6544 26.8677 95.9625 26.5347 96.3886 26.285C96.8146 26.0353 97.3015 25.9105 97.8493 25.9105ZM99.0589 29.3949C98.6024 29.2814 98.203 29.2247 97.8607 29.2247C97.4042 29.2247 97.0504 29.3117 96.7994 29.4857C96.5483 29.6597 96.4228 29.9019 96.4228 30.2121C96.4228 30.4921 96.5255 30.7153 96.7309 30.8817C96.9363 31.0406 97.2064 31.1201 97.5411 31.1201C97.9596 31.1201 98.3171 31.0028 98.6138 30.7682C98.9105 30.5261 99.0589 30.1932 99.0589 29.7694V29.3949Z" fill="#4318FF"/>
<path d="M105.572 25.9105C106.211 25.9105 106.721 26.1186 107.101 26.5347C107.482 26.9509 107.615 27.5524 107.615 28.3394V31.9393H106.539V28.6912C106.539 28.1464 106.394 27.7265 106.188 27.4314C105.983 27.1363 105.671 26.9887 105.253 26.9887C104.827 26.9887 104.461 27.14 104.157 27.4427C103.86 27.7378 103.67 28.1615 103.67 28.7139V31.9393H102.594V26.013H103.67C103.67 26.3697 103.67 26.548 103.67 26.9047C103.868 26.5415 104.104 26.3758 104.431 26.1942C104.766 26.0051 105.146 25.9105 105.572 25.9105Z" fill="#4318FF"/>
<path d="M115.328 26.0467V31.4833C115.328 32.641 115.043 33.4657 114.472 33.9576C113.909 34.457 113.232 34.7067 112.441 34.7067C111.832 34.7067 111.292 34.578 110.82 34.3208C110.356 34.0635 110.037 33.7041 109.862 33.2425L110.786 32.7091C111.083 33.3295 111.634 33.6398 112.441 33.6398C112.996 33.6398 113.422 33.4695 113.719 33.129C114.016 32.7961 114.164 32.2286 114.164 31.4265V31.0293C113.951 31.3774 113.711 31.6384 113.376 31.8124C113.049 31.9789 112.692 32.0621 112.304 32.0621C111.84 32.0621 111.402 31.9411 110.991 31.6989C110.588 31.4492 110.261 31.0936 110.01 30.632C109.767 30.1629 109.645 29.6143 109.645 28.9863C109.645 28.3507 109.767 27.8021 110.01 27.3406C110.261 26.8714 110.588 26.5158 110.991 26.2737C111.402 26.0315 111.84 25.9105 112.304 25.9105C112.692 25.9105 113.057 26.0013 113.399 26.1829C113.742 26.3645 114.071 26.548 114.25 26.9047C114.25 26.548 114.25 26.3697 114.25 26.0467H115.328ZM112.475 31.0179C112.939 31.0179 113.335 30.8515 113.662 30.5185C113.997 30.1856 114.164 29.6749 114.164 28.9863C114.164 28.3053 113.997 27.8021 113.662 27.4768C113.335 27.1514 112.939 26.9887 112.475 26.9887C111.988 26.9887 111.596 27.1627 111.3 27.5108C111.01 27.8589 110.866 28.3507 110.866 28.9863C110.866 29.6295 111.01 30.1289 111.3 30.4845C111.596 30.8401 111.988 31.0179 112.475 31.0179Z" fill="#4318FF"/>
<path d="M120.25 25.9105C120.767 25.9105 121.22 26.0315 121.607 26.2737C121.995 26.5082 122.296 26.8336 122.509 27.2498C122.722 27.6584 122.829 28.1199 122.829 28.6345C122.829 28.8085 122.81 29.0166 122.771 29.2587H118.618C118.663 29.8489 118.846 30.2953 119.165 30.598C119.485 30.8931 119.884 31.0406 120.364 31.0406C120.987 31.0406 121.44 30.7834 121.722 30.2688L122.6 30.7796C122.448 31.1882 122.159 31.506 121.733 31.733C121.307 31.9524 120.832 32.0621 120.307 32.0621C119.766 32.0621 119.276 31.9448 118.834 31.7103C118.393 31.4682 118.039 31.1125 117.773 30.6434C117.515 30.1743 117.385 29.6143 117.385 28.9636C117.385 28.328 117.515 27.7794 117.773 27.3179C118.039 26.8563 118.389 26.5082 118.823 26.2737C119.264 26.0315 119.74 25.9105 120.25 25.9105ZM120.204 26.932C119.816 26.932 119.477 27.0568 119.188 27.3065C118.907 27.5486 118.728 27.9043 118.652 28.3734H121.596C121.566 27.9194 121.425 27.5676 121.174 27.3179C120.923 27.0606 120.599 26.932 120.204 26.932Z" fill="#4318FF"/>
<path d="M131.083 25.9105C131.6 25.9105 132.053 26.0315 132.441 26.2737C132.829 26.5082 133.129 26.8336 133.342 27.2498C133.556 27.6584 133.662 28.1199 133.662 28.6345C133.662 28.8085 133.643 29.0166 133.605 29.2587H129.451C129.497 29.8489 129.679 30.2953 129.999 30.598C130.318 30.8931 130.718 31.0406 131.197 31.0406C131.821 31.0406 132.274 30.7834 132.555 30.2688L133.434 30.7796C133.282 31.1882 132.993 31.506 132.567 31.733C132.14 31.9524 131.665 32.0621 131.14 32.0621C130.6 32.0621 130.109 31.9448 129.668 31.7103C129.227 31.4682 128.873 31.1125 128.607 30.6434C128.348 30.1743 128.219 29.6143 128.219 28.9636C128.219 28.328 128.348 27.7794 128.607 27.3179C128.873 26.8563 129.223 26.5082 129.657 26.2737C130.098 26.0315 130.573 25.9105 131.083 25.9105ZM131.037 26.932C130.649 26.932 130.311 27.0568 130.022 27.3065C129.74 27.5486 129.561 27.9043 129.485 28.3734H132.43C132.399 27.9194 132.258 27.5676 132.007 27.3179C131.756 27.0606 131.433 26.932 131.037 26.932Z" fill="#4318FF"/>
<path d="M137.928 25.9105C138.635 25.9105 139.206 26.1186 139.64 26.5347C140.081 26.9509 140.253 27.5522 140.253 28.3316V31.8987H139.177C139.177 31.542 139.177 31.3636 139.177 31.1853C138.812 31.7528 138.278 32.0621 137.471 32.0621C137.076 32.0621 136.711 31.9902 136.376 31.8465C136.049 31.7027 135.786 31.4946 135.588 31.2222C135.391 30.9498 135.292 30.6207 135.292 30.2348C135.292 29.6522 135.531 29.1906 136.011 28.8501C136.49 28.5096 137.102 28.3394 137.848 28.3394C138.266 28.3394 138.696 28.3961 139.137 28.5096V28.4869C139.137 27.9497 139.031 27.5562 138.818 27.3065C138.605 27.0493 138.285 26.9206 137.859 26.9206C137.517 26.9206 137.228 26.9963 136.992 27.1476C136.764 27.2914 136.57 27.5032 136.41 27.7832L135.543 27.2838C135.733 26.8677 136.041 26.5347 136.467 26.285C136.893 26.0353 137.38 25.9105 137.928 25.9105ZM139.137 29.3949C138.681 29.2814 138.282 29.2247 137.939 29.2247C137.483 29.2247 137.129 29.3117 136.878 29.4857C136.627 29.6597 136.501 29.9019 136.501 30.2121C136.501 30.4921 136.604 30.7153 136.809 30.8817C137.015 31.0406 137.285 31.1201 137.62 31.1201C138.038 31.1201 138.396 31.0028 138.692 30.7682C138.989 30.5261 139.137 30.1932 139.137 29.7694V29.3949Z" fill="#4318FF"/>
<path d="M146.735 30.2348C146.735 30.7872 146.522 31.2298 146.096 31.5627C145.677 31.8957 145.13 32.0621 144.452 32.0621C143.851 32.0621 143.338 31.9335 142.912 31.6762C142.486 31.419 142.201 31.0633 142.056 30.6093L142.935 30.0986C143.064 30.4164 143.258 30.6585 143.517 30.825C143.775 30.9839 144.087 31.0633 144.452 31.0633C144.78 31.0633 145.038 30.999 145.228 30.8704C145.426 30.7342 145.525 30.5488 145.525 30.3142C145.525 30.1326 145.464 29.9851 145.343 29.8716C145.228 29.7505 145.08 29.6559 144.898 29.5878C144.723 29.5198 144.479 29.4403 144.167 29.3495C143.756 29.236 143.425 29.1263 143.174 29.0204C142.931 28.9144 142.718 28.7593 142.535 28.555C142.36 28.3431 142.273 28.0632 142.273 27.7151C142.273 27.3519 142.372 27.0341 142.57 26.7617C142.775 26.4818 143.045 26.2699 143.38 26.1261C143.722 25.9824 144.099 25.9105 144.509 25.9105C145.05 25.9105 145.51 26.0278 145.89 26.2623C146.278 26.4969 146.537 26.8147 146.666 27.2157L145.788 27.7151C145.673 27.4654 145.502 27.2725 145.274 27.1363C145.053 27.0001 144.787 26.932 144.475 26.932C144.179 26.932 143.939 26.9925 143.756 27.1136C143.574 27.2271 143.482 27.3935 143.482 27.613C143.482 27.7794 143.536 27.9156 143.642 28.0216C143.756 28.1199 143.897 28.2032 144.064 28.2713C144.232 28.3318 144.468 28.4037 144.772 28.4869C145.183 28.6004 145.518 28.7139 145.776 28.8274C146.042 28.9409 146.267 29.1112 146.449 29.3382C146.64 29.5651 146.735 29.864 146.735 30.2348Z" fill="#4318FF"/>
<path d="M149.177 25.0933C148.979 25.0933 148.808 25.0176 148.663 24.8663C148.519 24.7149 148.446 24.5371 148.446 24.3328C148.446 24.1285 148.519 23.9545 148.663 23.8107C148.808 23.6594 148.979 23.5837 149.177 23.5837C149.39 23.5837 149.568 23.6594 149.713 23.8107C149.858 23.9545 149.93 24.1285 149.93 24.3328C149.93 24.5371 149.854 24.7149 149.702 24.8663C149.557 25.0176 149.382 25.0933 149.177 25.0933ZM149.77 31.9393H148.502V26.0024H149.77V31.9393Z" fill="#4318FF"/>
<path d="M154.719 25.8835C155.236 25.8835 155.681 26.0315 156.069 26.2737C156.457 26.5082 156.758 26.8336 156.971 27.2498C157.184 27.6584 157.29 28.1199 157.29 28.6345C157.29 28.8085 157.271 28.9706 157.233 29.2128H153.079C153.125 29.803 153.308 30.2953 153.627 30.598C153.947 30.8931 154.346 31.0406 154.825 31.0406C155.449 31.0406 155.902 30.7834 156.183 30.2688L157.062 30.7796C156.91 31.1882 156.621 31.506 156.195 31.733C155.769 31.9524 155.303 32.0665 154.778 32.0665C154.238 32.0665 153.738 31.9448 153.296 31.7103C152.855 31.4682 152.501 31.1125 152.235 30.6434C151.976 30.1743 151.847 29.6257 151.847 28.975C151.847 28.3394 151.976 27.7794 152.235 27.3179C152.501 26.8563 152.851 26.5082 153.285 26.2737C153.726 26.0315 154.209 25.8835 154.719 25.8835ZM154.666 26.932C154.278 26.932 153.939 27.0568 153.65 27.3065C153.369 27.5486 153.19 27.9043 153.114 28.3734H156.058C156.027 27.9194 155.887 27.5676 155.636 27.3179C155.385 27.0606 155.061 26.932 154.666 26.932Z" fill="#4318FF"/>
<path d="M162.178 25.9105C162.375 25.9105 162.558 25.937 162.725 25.9899C162.9 26.0429 163.037 26.1148 163.136 26.2056L162.691 27.1249C162.516 27.019 162.322 26.966 162.109 26.966C161.676 26.966 161.322 27.1438 161.048 27.4995C160.782 27.8551 160.696 28.3867 160.696 29.045V31.8881H159.44V26.0024H160.516C160.516 26.3591 160.516 26.548 160.516 26.9047C160.691 26.5415 160.976 26.3645 161.242 26.1829C161.516 26.0013 161.828 25.9105 162.178 25.9105Z" fill="#4318FF"/>
</svg>
