<svg width="66" height="66" viewBox="0 0 66 66" fill="none" xmlns="http://www.w3.org/2000/svg">
<rect width="66" height="66" fill="white"/>
<rect width="66" height="66" fill="white"/>
<path fill-rule="evenodd" clip-rule="evenodd" d="M34.8917 7.10879C33.7902 6.22743 32.2095 6.22742 31.108 7.10877C26.0305 11.1713 19.9829 14.0528 13.3728 15.3419C12.0211 15.6055 11 16.7602 11 18.1374V35.8582C11 44.1624 15.6759 51.7589 23.0897 55.4997L33 60.5L42.9103 55.4997C50.3242 51.7589 55 44.1624 55 35.8582V18.1377C55 16.7605 53.9789 15.6058 52.6272 15.3422C46.017 14.0531 39.9692 11.1715 34.8917 7.10879Z" fill="#0000FF"/>
<path fill-rule="evenodd" clip-rule="evenodd" d="M26.75 37.3589C23.6322 34.2411 23.6322 29.1862 26.75 26.0684C29.8678 22.9506 34.9227 22.9506 38.0405 26.0684C40.7922 28.8201 41.1153 33.0808 39.0097 36.1868C39.8554 36.0683 40.7186 36.141 41.5317 36.3982C43.5116 32.5388 42.8855 27.6875 39.6534 24.4554C35.6448 20.4469 29.1457 20.4469 25.1371 24.4555C21.1285 28.464 21.1285 34.9632 25.1371 38.9718C29.0916 42.9263 35.4701 42.9796 39.49 39.1317L37.2662 39.0506L36.7973 38.3758C33.6976 40.4286 29.4808 40.0896 26.75 37.3589Z" fill="white"/>
<path d="M41.9742 44.4811C43.436 43.2836 43.6503 41.1278 42.4528 39.666C41.2553 38.2042 39.0995 37.99 37.6377 39.1875" stroke="white" stroke-width="2.28102" stroke-linecap="round"/>
</svg>
