<svg width="66" height="66" viewBox="0 0 66 66" fill="none" xmlns="http://www.w3.org/2000/svg">
<rect width="66" height="66" fill="white"/>
<path fill-rule="evenodd" clip-rule="evenodd" d="M48.5091 27.3549C46.2035 21.0223 40.1299 16.5 33 16.5C32.807 16.5 32.6148 16.5033 32.4235 16.5099L32.5194 19.2582C32.679 19.2528 32.8392 19.25 33 19.25C38.9416 19.25 44.0029 23.0185 45.9242 28.2958L48.5091 27.3549ZM29.7807 19.6289C23.7398 21.0781 19.25 26.5147 19.25 33C19.25 40.5939 25.4061 46.75 33 46.75C40.5939 46.75 46.75 40.5939 46.75 33C46.75 32.3122 46.6995 31.6362 46.602 30.9756L49.2313 30.0186C49.4078 30.9856 49.5 31.982 49.5 33C49.5 42.1127 42.1127 49.5 33 49.5C23.8873 49.5 16.5 42.1127 16.5 33C16.5 25.0234 22.1601 18.3688 29.6831 16.8335L29.7807 19.6289Z" fill="#4318FF"/>
<path fill-rule="evenodd" clip-rule="evenodd" d="M32.9993 5.5C33.6018 5.5 34.1998 5.51938 34.7927 5.55754C44.9328 6.21029 53.5752 12.359 57.775 21.0559C58.0942 21.717 58.3878 22.3928 58.6544 23.0821C58.7196 23.2505 58.7831 23.4198 58.845 23.5898V23.6059L58.8409 23.5944L56.2637 24.5325C52.8054 15.0334 43.6949 8.24996 33 8.24996C32.7107 8.24996 32.4225 8.25492 32.1355 8.26477L32.0396 5.51674C32.3582 5.50581 32.6781 5.5 32.9993 5.5ZM29.3925 8.51098L29.296 5.74728C15.8598 7.55622 5.5 19.0683 5.5 33C5.5 48.1878 17.8122 60.5 33 60.5C48.1878 60.5 60.5 48.1878 60.5 33C60.5 30.6614 60.2081 28.391 59.6587 26.2233L57.0593 27.1694C57.5108 29.0391 57.75 30.9916 57.75 33C57.75 46.669 46.669 57.75 33 57.75C19.331 57.75 8.25 46.669 8.25 33C8.25 20.5563 17.4333 10.2574 29.3925 8.51098ZM59.0695 24.2225C59.0513 24.1684 59.0329 24.1145 59.0144 24.0606L59.0108 24.0612L59.0695 24.2225ZM31.8861 5.5221L32.0322 5.517L32.0322 5.51667C31.9835 5.51835 31.9348 5.52016 31.8861 5.5221Z" fill="#4318FF"/>
<path d="M32.0332 5.517L32.0406 5.51674L33.0003 33L58.8419 23.5944L58.846 23.6059V23.5898C55.003 13.0363 44.8828 5.5 33.0003 5.5C32.6766 5.5 32.3542 5.50591 32.0332 5.517Z" fill="#A18BFF"/>
<circle cx="33" cy="33" r="2.75" fill="#4318FF"/>
</svg>
