<svg width="66" height="66" viewBox="0 0 66 66" fill="none" xmlns="http://www.w3.org/2000/svg">
<rect width="66" height="66" fill="white"/>
<path d="M54.8998 44.7941C56.3443 45.2631 57.9085 44.4737 58.2462 42.993C59.1144 39.1859 59.2495 35.2393 58.6349 31.366C57.8763 26.5853 55.997 22.052 53.1507 18.1368C50.3044 14.2215 46.5719 11.0355 42.2583 8.83916C38.7635 7.05974 34.9677 5.97091 31.0784 5.6224C29.5657 5.48685 28.3324 6.73122 28.3328 8.25L28.339 29.771C28.3392 30.3785 28.837 30.8594 29.4315 30.9844C29.8868 31.0801 30.3291 31.2356 30.7466 31.4482C31.4922 31.8278 32.1374 32.3786 32.6294 33.0554C33.1214 33.7321 33.4463 34.5158 33.5774 35.3421C33.6508 35.8048 33.6624 36.2735 33.613 36.7362C33.5484 37.3403 33.8523 37.9621 34.4302 38.1497L54.8998 44.7941Z" fill="#4318FF" stroke="white" stroke-width="0.846154"/>
<circle cx="28.3353" cy="36.1669" r="5.28846" fill="#FCFCFC"/>
<path d="M21.6819 56.6907C21.2136 58.1355 22.0039 59.7028 23.4923 60.0051C25.7139 60.4563 27.9921 60.5957 30.2609 60.4155C33.4455 60.1625 36.5491 59.2848 39.3945 57.8323C42.2399 56.3799 44.7714 54.3813 46.8444 51.9505C48.3212 50.2188 49.5447 48.2919 50.4825 46.2281C51.1107 44.8453 50.305 43.2859 48.8602 42.8176L34.4061 38.1329C33.8282 37.9455 33.2172 38.2707 32.9145 38.7974C32.7529 39.0785 32.5653 39.3449 32.3539 39.5928C31.9038 40.1206 31.354 40.5546 30.7362 40.87C30.1183 41.1854 29.4443 41.376 28.7528 41.431C28.428 41.4568 28.1023 41.4524 27.7798 41.4184C27.1756 41.3546 26.5539 41.6587 26.3666 42.2366L21.6819 56.6907Z" fill="#6946FF" stroke="white" stroke-width="0.846154"/>
<path d="M11 36.177C9.48121 36.177 8.23066 37.4139 8.43785 38.9185C8.88733 42.1825 10.1349 45.3009 12.088 47.9892C14.0412 50.6775 16.6215 52.8276 19.5868 54.2638C20.9538 54.9258 22.5166 54.1186 22.9859 52.6742L26.3625 42.2822C26.5502 41.7044 26.2256 41.0931 25.6987 40.7907C25.0515 40.4193 24.4861 39.9139 24.0427 39.3036C23.5993 38.6934 23.2933 37.9994 23.1401 37.2692C23.0154 36.6746 22.5343 36.177 21.9268 36.177L11 36.177Z" fill="#3613CC" stroke="white" stroke-width="0.846154"/>
<path d="M19.7577 24.5011C19.307 23.89 18.4416 23.7556 17.8717 24.2576C16.3441 25.6032 15.0863 27.2333 14.1713 29.0614C13.2562 30.8895 12.705 32.8733 12.5433 34.9026C12.483 35.6596 13.1092 36.2719 13.8685 36.2665L21.9211 36.2089C22.5286 36.2046 23.0062 35.7036 23.1262 35.108C23.2193 34.6465 23.3733 34.1977 23.5855 33.7737C23.7977 33.3498 24.0647 32.9575 24.3784 32.6064C24.7832 32.1534 24.8981 31.4709 24.5375 30.982L19.7577 24.5011Z" fill="#A18BFF" stroke="white" stroke-width="0.846154"/>
<path d="M28.3447 25.9155C28.3447 25.1561 27.727 24.5321 26.9729 24.6217C25.4307 24.8048 23.9404 25.2949 22.5906 26.063C21.9306 26.4386 21.8039 27.3074 22.2547 27.9186L24.5304 31.0039C24.8911 31.4929 25.5771 31.5846 26.1296 31.332C26.489 31.1676 26.8656 31.0437 27.2525 30.9626C27.8471 30.838 28.3447 30.3569 28.3447 29.7494V25.9155Z" fill="#D9D1FF" stroke="white" stroke-width="0.846154"/>
<circle cx="28.342" cy="36.1731" r="3.17308" fill="#4318FF"/>
</svg>
