<svg width="66" height="66" viewBox="0 0 66 66" fill="none" xmlns="http://www.w3.org/2000/svg">
<rect width="66" height="66" fill="white"/>
<rect x="23.4795" y="10.9987" width="19.0385" height="15.2308" rx="2.75" fill="#4318FF"/>
<path fill-rule="evenodd" clip-rule="evenodd" d="M46.322 30.0299H38.7072C36.6049 30.0299 34.9005 28.3261 34.8995 26.2241H31.0918C31.0928 30.4291 34.5019 33.8376 38.7072 33.8376H46.322V30.0299Z" fill="#A18BFF"/>
<path fill-rule="evenodd" clip-rule="evenodd" d="M38.709 33.8456H47.3866C49.4893 33.8456 51.194 35.5501 51.1943 37.6528H55.002C55.0017 33.4471 51.5923 30.0379 47.3866 30.0379H38.709V33.8456Z" fill="#A18BFF"/>
<path fill-rule="evenodd" clip-rule="evenodd" d="M19.677 30.0294H27.2918C29.3942 30.0294 31.0985 28.3256 31.0995 26.2236H34.9072C34.9062 30.4286 31.4971 33.8371 27.2918 33.8371H19.677V30.0294Z" fill="#A18BFF"/>
<path fill-rule="evenodd" clip-rule="evenodd" d="M27.2874 33.8451H18.6173C16.5146 33.8451 14.8099 35.5496 14.8096 37.6523H11.002C11.0022 33.4467 14.4116 30.0374 18.6173 30.0374H27.2874V33.8451Z" fill="#A18BFF"/>
<rect x="38.709" y="37.6494" width="19.0385" height="15.2308" rx="2.75" fill="#4318FF"/>
<rect x="8.25" y="37.6494" width="19.0385" height="15.2308" rx="2.75" fill="#4318FF"/>
</svg>
