<?xml version="1.0" standalone="no"?><!DOCTYPE svg PUBLIC "-//W3C//DTD SVG 1.1//EN" "http://www.w3.org/Graphics/SVG/1.1/DTD/svg11.dtd"><svg t="1704718207619" class="icon" viewBox="0 0 1024 1024" version="1.1" xmlns="http://www.w3.org/2000/svg" p-id="6300" xmlns:xlink="http://www.w3.org/1999/xlink" width="200" height="200"><path d="M64 448h896v405.333333H64z" fill="#FFC107" p-id="6301"></path><path d="M960 448v-106.666667a42.666667 42.666667 0 0 0-42.666667-42.666666H106.666667a42.666667 42.666667 0 0 0-42.666667 42.666666v106.666667h896zM405.333333 298.666667v-85.333334h192v85.333334h42.666667v-85.333334a42.666667 42.666667 0 0 0-42.666667-42.666666h-192a42.666667 42.666667 0 0 0-42.666666 42.666666v85.333334h42.666666z" fill="#455A64" p-id="6302"></path><path d="M192 405.333333h128v192H192zM704 405.333333h128v192h-128z" fill="#78909C" p-id="6303"></path><path d="M192 512h128v42.666667H192zM704 512h128v42.666667h-128z" fill="#455A64" p-id="6304"></path></svg>