<svg class="svg-canvas" viewBox="0 0 800 600" width="1600" height="1200" preserveAspectRatio="none" version="1.1" xmlns="http://www.w3.org/2000/svg" xmlns:xlink="http://www.w3.org/1999/xlink">
      <!--滤镜-->
      <defs></defs>
    
      <!-- 背景 -->
      <g id="background">
          <rect x="0" y="0" fill="#ffffff" width="800" height="600"></rect>
          
        </g>
    
      <!--元素-->
      
              <g id="shape_rqjy8kmZzg" ref="shape_rqjy8kmZzg" key="shape_rqjy8kmZzg" transform="translate(272.8293792334439,194.46583938514294) rotate(0,171.5120161204423,86.68283315689708) scale(1,1)" style="opacity: 1;" filter="">
                <!--普通元素-->
                <svg xmlns="http://www.w3.org/2000/svg" version="1.1" xmlns:xlink="http://www.w3.org/1999/xlink" width="343.0240322408846" height="173.36566631379412" viewBox="0 0 258.797 130.797" data-parent="shape_rqjy8kmZzg"><g data-role="text" data-width="145.0138" data-height="18" transform="translate(56.3985, 56.3985)"><path d="M8.56 0.18Q4.98 0.18 3.04-1.55Q1.10-3.27 1.10-6.93L1.10-6.93Q1.10-9.29 1.99-10.89Q2.89-12.49 4.59-13.29Q6.29-14.09 8.70-14.09L8.70-14.09Q9.65-14.09 10.49-13.99Q11.33-13.88 12.17-13.66L12.17-13.66L12.17-11.90Q10.56-12.32 8.84-12.32L8.84-12.32Q6.09-12.32 4.71-11.03Q3.34-9.73 3.34-6.97L3.34-6.97Q3.34-4.13 4.70-2.86Q6.05-1.59 8.69-1.59L8.69-1.59Q9.61-1.59 10.44-1.71Q11.28-1.83 12.17-2.12L12.17-2.12L12.17-0.35Q10.49 0.18 8.56 0.18L8.56 0.18Z" transform="translate(0 16) " fill="#9100da" stroke="#9100da" stroke-width="0.031" data-glyph-w="12.746400000000001" data-glyph-h="23.5" data-glyph-ascender="19.364" data-glyph-descender="-4.136"></path><path d="M7.97 0.18Q5.88 0.18 4.33-0.62Q2.78-1.42 1.94-3.02Q1.10-4.62 1.10-6.96L1.10-6.96Q1.10-9.30 1.95-10.89Q2.80-12.49 4.34-13.29Q5.88-14.09 7.97-14.09L7.97-14.09Q10.08-14.09 11.62-13.29Q13.16-12.49 14.00-10.89Q14.84-9.29 14.84-6.96L14.84-6.96Q14.84-4.62 13.99-3.03Q13.14-1.43 11.60-0.63Q10.06 0.18 7.97 0.18L7.97 0.18ZM7.97-1.56Q10.20-1.56 11.43-2.87Q12.66-4.18 12.66-6.90L12.66-6.90Q12.66-9.68 11.43-11.02Q10.19-12.35 7.97-12.35L7.97-12.35Q5.76-12.35 4.52-11.04Q3.28-9.73 3.28-7.01L3.28-7.01Q3.28-4.21 4.51-2.89Q5.74-1.56 7.97-1.56L7.97-1.56Z" transform="translate(12.746400000000001 16) " fill="#9100da" stroke="#9100da" stroke-width="0.031" data-glyph-w="15.942400000000001" data-glyph-h="23.5" data-glyph-ascender="19.364" data-glyph-descender="-4.136"></path><path d="M5.77 0.11Q3.70 0.11 1.72-0.14L1.72-0.14L1.72-13.58Q2.71-13.80 3.92-13.92Q5.14-14.04 6.24-14.04L6.24-14.04Q10.22-14.04 12.24-12.28Q14.27-10.51 14.27-6.96L14.27-6.96Q14.27-3.34 12.16-1.61Q10.06 0.11 5.77 0.11L5.77 0.11ZM6.25-1.63Q9.23-1.63 10.66-2.92Q12.09-4.22 12.09-6.97L12.09-6.97Q12.09-9.70 10.65-11.01Q9.21-12.32 6.29-12.32L6.29-12.32Q5.22-12.32 3.84-12.11L3.84-12.11L3.84-1.77Q4.84-1.63 6.25-1.63L6.25-1.63Z" transform="translate(28.6888 16) " fill="#9100da" stroke="#9100da" stroke-width="0.031" data-glyph-w="15.369" data-glyph-h="23.5" data-glyph-ascender="19.364" data-glyph-descender="-4.136"></path><path d="M3.83-6.30L3.83-1.65L11.92-1.65L11.92 0L1.72 0L1.72-13.91L11.83-13.91L11.83-12.26L3.83-12.26L3.83-7.96L10.86-7.96L10.86-6.30L3.83-6.30Z" transform="translate(44.0578 16) " fill="#9100da" stroke="#9100da" stroke-width="0.031" data-glyph-w="12.8498" data-glyph-h="23.5" data-glyph-ascender="19.364" data-glyph-descender="-4.136"></path><path d="M16.68-1.78L20.46-13.91L22.51-13.91L18.10 0L15.38 0L11.56-11.85L7.71 0L4.98 0L0.55-13.91L2.74-13.91L6.48-1.85L10.37-13.91L12.80-13.91L16.68-1.78Z" transform="translate(56.9076 16) " fill="#9100da" stroke="#9100da" stroke-width="0.031" data-glyph-w="23.0864" data-glyph-h="23.5" data-glyph-ascender="19.364" data-glyph-descender="-4.136"></path><path d="M11.77-13.91L11.77-12.22L3.84-12.22L3.84-7.80L10.78-7.80L10.78-6.10L3.84-6.10L3.84 0L1.72 0L1.72-13.91L11.77-13.91Z" transform="translate(79.994 16) " fill="#9100da" stroke="#9100da" stroke-width="0.031" data-glyph-w="12.502" data-glyph-h="23.5" data-glyph-ascender="19.364" data-glyph-descender="-4.136"></path><path d="M2.57 0.13Q1.92 0.13 1.54-0.22Q1.16-0.56 1.16-1.17L1.16-1.17Q1.16-1.76 1.53-2.11Q1.91-2.46 2.57-2.46L2.57-2.46Q3.23-2.46 3.61-2.11Q3.99-1.76 3.99-1.17L3.99-1.17Q3.99-0.57 3.60-0.22Q3.22 0.13 2.57 0.13L2.57 0.13Z" transform="translate(92.496 16) " fill="#9100da" stroke="#9100da" stroke-width="0.031" data-glyph-w="5.1418" data-glyph-h="23.5" data-glyph-ascender="19.364" data-glyph-descender="-4.136"></path><path d="M8.56 0.18Q4.98 0.18 3.04-1.55Q1.10-3.27 1.10-6.93L1.10-6.93Q1.10-9.29 1.99-10.89Q2.89-12.49 4.59-13.29Q6.29-14.09 8.70-14.09L8.70-14.09Q9.65-14.09 10.49-13.99Q11.33-13.88 12.17-13.66L12.17-13.66L12.17-11.90Q10.56-12.32 8.84-12.32L8.84-12.32Q6.09-12.32 4.71-11.03Q3.34-9.73 3.34-6.97L3.34-6.97Q3.34-4.13 4.70-2.86Q6.05-1.59 8.69-1.59L8.69-1.59Q9.61-1.59 10.44-1.71Q11.28-1.83 12.17-2.12L12.17-2.12L12.17-0.35Q10.49 0.18 8.56 0.18L8.56 0.18Z" transform="translate(97.6378 16) " fill="#9100da" stroke="#9100da" stroke-width="0.031" data-glyph-w="12.746400000000001" data-glyph-h="23.5" data-glyph-ascender="19.364" data-glyph-descender="-4.136"></path><path d="M7.97 0.18Q5.88 0.18 4.33-0.62Q2.78-1.42 1.94-3.02Q1.10-4.62 1.10-6.96L1.10-6.96Q1.10-9.30 1.95-10.89Q2.80-12.49 4.34-13.29Q5.88-14.09 7.97-14.09L7.97-14.09Q10.08-14.09 11.62-13.29Q13.16-12.49 14.00-10.89Q14.84-9.29 14.84-6.96L14.84-6.96Q14.84-4.62 13.99-3.03Q13.14-1.43 11.60-0.63Q10.06 0.18 7.97 0.18L7.97 0.18ZM7.97-1.56Q10.20-1.56 11.43-2.87Q12.66-4.18 12.66-6.90L12.66-6.90Q12.66-9.68 11.43-11.02Q10.19-12.35 7.97-12.35L7.97-12.35Q5.76-12.35 4.52-11.04Q3.28-9.73 3.28-7.01L3.28-7.01Q3.28-4.21 4.51-2.89Q5.74-1.56 7.97-1.56L7.97-1.56Z" transform="translate(110.38419999999999 16) " fill="#9100da" stroke="#9100da" stroke-width="0.031" data-glyph-w="15.942400000000001" data-glyph-h="23.5" data-glyph-ascender="19.364" data-glyph-descender="-4.136"></path><path d="M9.38-3.95L14.39-13.91L16.93-13.91L16.93 0L14.93 0L14.93-11.12L10.27-1.96L8.40-1.96L3.76-10.94L3.76 0L1.76 0L1.76-13.91L4.30-13.91L9.38-3.95Z" transform="translate(126.3266 16) " fill="#9100da" stroke="#9100da" stroke-width="0.031" data-glyph-w="18.6872" data-glyph-h="23.5" data-glyph-ascender="19.364" data-glyph-descender="-4.136"></path></g></svg>
              </g>
              <g id="shape_awPVCCiLnv" ref="shape_awPVCCiLnv" key="shape_awPVCCiLnv" transform="translate(96.93417431525398,44.26317911633993) rotate(0,393.2892995147365,283.93918085079156) scale(1,1)" style="opacity: 1;" filter="">
                <!--普通元素-->
                <svg xmlns="http://www.w3.org/2000/svg" version="1.1" xmlns:xlink="http://www.w3.org/1999/xlink" width="786.5785990294731" height="567.878361701583" viewBox="0 0 593.44 428.44" data-parent="shape_awPVCCiLnv"><g data-role="text" data-width="225.3632" data-height="61" transform="translate(183.72, 183.72)"><path d="M18.68 0.06L5.21 0.06L5.21-16.90L1.16-16.90L4.65-38.03L1.53-38.03L1.53-44.09L27.07-44.09L27.07-38.03L13.11-38.03L12.68-35.21L25.41-35.21L25.41-6.68Q25.41-5.27 24.86-4.04Q24.31-2.82 23.39-1.90Q22.48-0.98 21.25-0.46Q20.03 0.06 18.68 0.06L18.68 0.06ZM13.04-29.15L13.04-6.00L15.68-6.00Q16.47-6.00 17.02-6.55Q17.58-7.10 17.58-7.90L17.58-7.90L17.58-29.15L13.04-29.15ZM55.12-25.29L55.12-6.68Q55.12-5.27 54.60-4.04Q54.07-2.82 53.16-1.90Q52.24-0.98 51.01-0.46Q49.79 0.06 48.38 0.06L48.38 0.06L40.23 0.06L42.56-5.21L44.71-5.21Q45.50-5.21 46.05-5.76Q46.60-6.31 46.60-7.17L46.60-7.17L46.60-19.23L27.62-19.23L30.74-34.85L39.56-34.85L37.72-25.29L44.52-25.29L44.52-36.19Q44.52-36.99 43.97-37.54Q43.42-38.09 42.62-38.09L42.62-38.09L29.09-38.09L29.09-44.15L46.30-44.15Q47.71-44.15 48.93-43.63Q50.16-43.11 51.07-42.19Q51.99-41.28 52.51-40.05Q53.03-38.83 53.03-37.42L53.03-37.42L53.03-25.29L55.12-25.29ZM43.17-14.15L43.17-8.08L27.62-8.08L27.62-14.15L43.17-14.15Z" transform="translate(0 52) " fill="#9100da" stroke="#9100da" stroke-width="0.102" data-glyph-w="56.3408" data-glyph-h="61.24" data-glyph-ascender="52.605160000000005" data-glyph-descender="-8.63484"></path><path d="M8.88-6.86L8.88-14.39L1.04-14.39L10.72-22.48L2.20-22.48L2.20-23.64L2.20-26.70L2.20-27.93L2.20-38.27L2.20-39.32L2.20-43.73L53.46-43.73L53.46-38.27L53.46-29.15Q53.46-27.74 52.94-26.55Q52.42-25.35 51.50-24.43Q50.58-23.52 49.36-23.00Q48.13-22.48 46.73-22.48L46.73-22.48L45.50-22.48L55.24-14.39L46.11-14.39L46.11-0.55L37.91-0.55L37.91-17.09L42.68-17.09L36.56-22.48L19.72-22.48L13.60-17.09L16.96-17.09L16.96-6.86L14.15-0.37L6.06-0.37L8.88-6.86ZM32.58-27.93L44.71-27.93Q45.50-27.93 46.05-28.48Q46.60-29.03 46.60-29.82L46.60-29.82L46.60-30.80L32.58-30.80L32.58-27.93ZM46.60-35.34L46.60-38.27L32.58-38.27L32.58-35.34L46.60-35.34ZM24.31-38.27L9.12-38.27L9.12-35.34L24.31-35.34L24.31-38.27ZM9.12-30.80L9.12-27.93L24.31-27.93L24.31-30.80L9.12-30.80Z" transform="translate(56.3408 52) " fill="#9100da" stroke="#9100da" stroke-width="0.102" data-glyph-w="56.3408" data-glyph-h="61.24" data-glyph-ascender="52.605160000000005" data-glyph-descender="-8.63484"></path><path d="M54.01-5.94L54.01-0.24L2.27-0.24L2.27-5.94L23.88-5.94L23.88-38.27L4.41-38.27L4.41-43.91L51.87-43.91L51.87-38.27L32.40-38.27L32.40-5.94L54.01-5.94Z" transform="translate(112.6816 52) " fill="#9100da" stroke="#9100da" stroke-width="0.102" data-glyph-w="56.3408" data-glyph-h="61.24" data-glyph-ascender="52.605160000000005" data-glyph-descender="-8.63484"></path><path d="M18.13-7.23L18.13-1.16L1.22 0.18L1.22-5.88L5.45-6.25L5.45-31.42L2.02-31.42L2.02-37.48L5.45-37.48L5.45-43.85L13.90-43.85L13.90-37.48L17.33-37.48L17.33-31.42L13.90-31.42L13.90-6.92L18.13-7.23ZM55.05-36.01L35.34-36.01L34.29-30.01L53.22-30.01L53.22-6.55Q53.22-5.14 52.67-3.92Q52.12-2.69 51.20-1.78Q50.28-0.86 49.05-0.34Q47.83 0.18 46.48 0.18L46.48 0.18L35.03 0.18L37.23-5.88L42.81-5.88Q43.60-5.88 44.15-6.43Q44.71-6.98 44.71-7.78L44.71-7.78L44.71-23.94L33.25-23.94L29.03 0.18L20.15 0.18L26.46-36.01L18.13-36.01L18.13-42.07L31.29-42.07L30.38-44.28L40.36-44.28L41.34-42.07L55.05-42.07L55.05-36.01Z" transform="translate(169.0224 52) " fill="#9100da" stroke="#9100da" stroke-width="0.102" data-glyph-w="56.3408" data-glyph-h="61.24" data-glyph-ascender="52.605160000000005" data-glyph-descender="-8.63484"></path></g></svg>
              </g>
              <g id="shape_hsqBNLUZLK" ref="shape_hsqBNLUZLK" key="shape_hsqBNLUZLK" transform="translate(160,231.37123252680396) rotate(0,106.03647870443153,67.17446992755423) scale(1,1)" style="opacity: 1;" filter="">
                <!--普通元素-->
                <svg version="1.1" id="图层_1" xmlns="http://www.w3.org/2000/svg" xmlns:xlink="http://www.w3.org/1999/xlink" x="0px" y="0px" viewBox="0 0 117.6 74.5" style="enable-background:new 0 0 117.6 74.5;" xml:space="preserve" width="212.07295740886306" height="134.34893985510845" class="style-removed" preserveAspectRatio="none" data-parent="shape_hsqBNLUZLK">

<g>
	<path d="M95,26.3C95,26.3,95,26.3,95,26.3L117.6,7L93,21.1C89.3,13.4,82.9,6.9,74.5,3.2C69.6,1,64.5,0,59.5,0
		C45.2,0,31.5,8.3,25.4,22.2c-5.4,12.2-3.7,25.6,3.2,35.9L0,74.4l38.5,0l48.3-41.2L95,26.3z M37.7,45.6c-2.2-5.8-2.1-12.1,0.4-17.8
		C41.9,19.4,50.2,14,59.5,14c3.2,0,6.4,0.7,9.4,2c5.6,2.5,9.7,6.9,12,12.1l-40.1,23C39.5,49.4,38.5,47.6,37.7,45.6z" fill="#9100da" stroke-width="0"></path>
	<path d="M78.8,50.2c-1,1.5-2.2,2.9-3.6,4.1L57.9,74.5c0.5,0,1,0,1.5,0c14.3,0,27.9-8.3,34.1-22.2
		c3.2-7.2,3.9-14.9,2.5-22.1L78.8,50.2z" fill="#9100da" stroke-width="0"></path>
</g>
</svg>
              </g>
    </svg>